<svg width="310" height="254" viewBox="0 0 310 254" fill="none" xmlns="http://www.w3.org/2000/svg">
<mask id="mask0_1_251" style="mask-type:luminance" maskUnits="userSpaceOnUse" x="199" y="0" width="111" height="170">
<path d="M310 0H199.67V169.437H310V0Z" fill="white"/>
</mask>
<g mask="url(#mask0_1_251)">
<path d="M305.471 32.326C305.003 31.7014 304.144 31.4671 303.441 31.9356C302.816 32.4041 302.582 33.263 303.051 33.9657C307.736 40.915 309.219 47.552 307.658 53.8766C305.784 61.3724 299.849 66.682 296.023 69.4929C298.756 59.6546 298.912 44.6629 287.278 25.0644C286.888 24.3617 286.029 24.1274 285.326 24.5959C284.623 24.9863 284.389 25.8452 284.858 26.548C294.462 42.7109 297.117 58.1711 292.588 71.1327C290.089 78.2381 285.951 82.923 283.921 84.8751C281.656 80.5025 279.236 76.3641 276.815 72.4601C278.611 70.5861 282.515 65.8231 283.218 58.4053C283.999 49.8944 280.407 40.7589 272.521 31.2329C272.052 30.6082 271.115 30.5301 270.491 31.0767C269.866 31.5452 269.788 32.4822 270.334 33.1068C287.278 53.5643 278.611 66.2916 275.254 70.0395C273.145 66.8382 271.037 63.793 268.851 60.904C268.851 60.904 268.851 60.904 268.851 60.8259C268.773 60.6697 268.695 60.5916 268.539 60.4355C262.37 52.393 255.733 45.9903 248.706 41.852C248.003 41.4616 247.144 41.6958 246.754 42.3205C246.363 42.9451 246.598 43.8821 247.222 44.2725C253.547 48.0205 259.559 53.7985 265.181 60.8259C262.136 61.8409 255.343 62.856 248.628 56.141C248.081 55.5944 247.144 55.5944 246.598 56.141C246.051 56.6875 246.051 57.6245 246.598 58.1711C253.078 64.73 259.872 64.8861 264.088 64.1053C265.337 63.8711 266.352 63.5587 267.055 63.2464C269.788 66.8382 272.365 70.7423 274.941 74.8025C270.569 76.2861 251.829 81.2052 236.213 62.0752C235.744 61.4505 234.807 61.3724 234.183 61.8409C233.558 62.3094 233.48 63.2464 233.948 63.8711C243.943 76.0518 255.109 79.0189 262.682 79.3312C266.118 79.4874 269.085 79.097 271.428 78.6285C273.848 78.16 275.566 77.5354 276.425 77.223C278.845 81.2833 281.188 85.5778 283.374 89.9504C280.173 90.9654 272.13 93.2298 262.448 93.6202C257.841 93.7764 253.391 93.5421 249.252 92.8394C248.55 90.2627 245.973 83.5477 236.213 75.7395C235.588 75.271 234.651 75.3491 234.183 75.9737C233.714 76.5984 233.792 77.5354 234.417 78.0039C242.069 84.0942 244.958 89.4038 245.973 92.2147C236.525 90.0285 228.483 85.5778 221.924 78.7066C221.377 78.16 220.44 78.0819 219.894 78.6285C219.347 79.1751 219.269 80.1121 219.816 80.6586C227.155 88.3107 236.603 93.3079 247.457 95.4161C247.613 95.4942 247.769 95.4942 247.925 95.4942C251.517 96.1188 255.187 96.5092 259.091 96.5092C252.376 100.491 237.15 106.348 217.005 94.7134C216.302 94.323 215.443 94.5572 215.053 95.2599C214.662 95.9627 214.896 96.8216 215.599 97.212C229.107 105.02 240.507 105.254 248.394 103.693C249.409 103.459 250.346 103.302 251.204 102.99C258.466 100.96 263.073 97.4462 264.4 96.3531C268.461 96.1188 272.208 95.5723 275.41 94.9476C279.704 94.0887 282.906 93.1517 284.623 92.5271C292.041 107.519 298.366 123.682 303.363 138.205C316.949 177.48 324.836 215.272 325.616 221.362C325.694 222.143 326.475 222.689 327.256 222.611H327.334C328.037 222.455 328.583 221.752 328.505 221.05C327.178 210.899 312.186 141.094 286.81 90.4189V90.3408C286.732 90.1846 286.654 90.1065 286.575 90.0285C286.185 89.1696 285.717 88.3887 285.326 87.5298C287.2 85.812 291.573 81.3614 294.618 73.9436C297.038 72.5381 307.658 65.9793 310.547 54.6574C312.342 47.3958 310.625 39.978 305.471 32.326Z" fill="#4A012E"/>
<path d="M252.063 39.197C252.22 44.1943 248.315 48.3326 243.318 48.4888C242.537 48.4888 241.835 48.4107 241.132 48.2545C237.15 47.3956 234.105 43.96 234.026 39.6655C233.87 34.6683 237.774 30.53 242.772 30.3738C243.631 30.3738 244.489 30.4519 245.27 30.608C249.096 31.6231 251.985 34.9806 252.063 39.197Z" fill="url(#paint0_linear_1_251)"/>
<path opacity="0.2" d="M240.976 38.4945C240.117 40.5246 238.243 41.6958 236.837 41.0712C235.432 40.4465 234.963 38.3383 235.822 36.3082C236.681 34.278 238.555 33.1068 239.961 33.7315C241.366 34.3561 241.835 36.4643 240.976 38.4945Z" fill="white"/>
<path opacity="0.2" d="M252.063 39.1971C252.22 44.1943 248.315 48.3326 243.318 48.4888C242.537 48.4888 241.835 48.4107 241.132 48.2546C249.487 43.9601 247.3 35.293 245.27 30.6081C249.096 31.6231 251.985 34.9807 252.063 39.1971Z" fill="#1D1D1B"/>
<path d="M225.75 95.7281C225.906 100.725 222.002 104.864 217.005 105.02C216.224 105.02 215.521 104.942 214.818 104.786C210.836 103.927 207.791 100.491 207.713 96.1966C207.557 91.1994 211.461 87.0611 216.458 86.9049C217.317 86.9049 218.176 86.983 218.957 87.1391C222.705 88.1542 225.594 91.5898 225.75 95.7281Z" fill="url(#paint1_linear_1_251)"/>
<path opacity="0.2" d="M214.662 95.1036C213.803 97.1337 211.929 98.305 210.524 97.6803C209.118 97.0556 208.65 94.9474 209.509 92.9173C210.368 90.8872 212.242 89.716 213.647 90.3406C215.053 90.8872 215.521 92.9954 214.662 95.1036Z" fill="white"/>
<path opacity="0.2" d="M225.75 95.7281C225.906 100.725 222.002 104.864 217.005 105.02C216.224 105.02 215.521 104.942 214.818 104.786C223.173 100.491 220.987 91.824 218.957 87.1391C222.705 88.1541 225.594 91.5897 225.75 95.7281Z" fill="#1D1D1B"/>
<path d="M276.347 35.6834C273.848 39.9779 268.304 41.4615 264.01 38.9628C263.385 38.5724 262.761 38.1039 262.214 37.6354C259.325 34.8245 258.544 30.2958 260.652 26.6259C263.151 22.3314 268.695 20.8479 272.989 23.3465C273.77 23.7369 274.395 24.2835 274.941 24.9081C277.752 27.7191 278.455 32.1697 276.347 35.6834Z" fill="url(#paint2_linear_1_251)"/>
<path opacity="0.2" d="M267.289 29.3586C265.493 30.608 263.307 30.686 262.37 29.4367C261.511 28.1874 262.214 26.1573 264.01 24.8299C265.806 23.5806 267.992 23.5025 268.929 24.7518C269.788 26.0011 269.085 28.0313 267.289 29.3586Z" fill="white"/>
<path opacity="0.2" d="M276.347 35.6831C273.848 39.9776 268.304 41.4612 264.01 38.9626C263.385 38.5721 262.761 38.1037 262.214 37.6352C271.584 38.3379 274.239 29.827 275.019 24.8298C277.752 27.7188 278.455 32.1694 276.347 35.6831Z" fill="#1D1D1B"/>
<path d="M253.469 56.9998C253.625 60.982 250.502 64.2614 246.52 64.4176C245.895 64.4176 245.348 64.3395 244.802 64.2614C241.678 63.5587 239.258 60.8258 239.18 57.4683C239.024 53.4861 242.147 50.2067 246.129 50.0505C246.832 50.0505 247.457 50.1286 248.081 50.2848C251.126 50.9875 253.391 53.7204 253.469 56.9998Z" fill="url(#paint3_linear_1_251)"/>
<path opacity="0.2" d="M244.724 56.4533C244.021 58.0931 242.616 59.03 241.444 58.4835C240.351 58.015 239.961 56.2972 240.663 54.7355C241.366 53.0958 242.772 52.1588 243.943 52.7054C245.036 53.1739 245.426 54.8136 244.724 56.4533Z" fill="white"/>
<path opacity="0.2" d="M253.469 56.9999C253.625 60.982 250.502 64.2615 246.52 64.4176C245.895 64.4176 245.348 64.3396 244.802 64.2615C251.439 60.8259 249.643 54.0328 248.081 50.2848C251.126 50.9876 253.391 53.7204 253.469 56.9999Z" fill="#1D1D1B"/>
<path d="M239.57 60.4353C239.726 64.4175 236.603 67.697 232.621 67.8531C231.996 67.8531 231.45 67.775 230.903 67.6969C227.78 66.9942 225.359 64.2614 225.281 60.9038C225.125 56.9217 228.248 53.6422 232.231 53.4861C232.933 53.4861 233.558 53.5642 234.183 53.7203C237.15 54.4231 239.492 57.1559 239.57 60.4353Z" fill="url(#paint4_linear_1_251)"/>
<path opacity="0.2" d="M230.825 59.8889C230.122 61.5286 228.717 62.4656 227.546 61.919C226.453 61.4505 226.062 59.7327 226.765 58.1711C227.468 56.5313 228.873 55.5944 230.044 56.1409C231.137 56.6094 231.45 58.3272 230.825 59.8889Z" fill="white"/>
<path opacity="0.2" d="M239.57 60.4354C239.726 64.4175 236.603 67.697 232.621 67.8531C231.996 67.8531 231.45 67.7751 230.903 67.697C237.54 64.2614 235.744 57.4683 234.183 53.7203C237.15 54.4231 239.492 57.1559 239.57 60.4354Z" fill="#1D1D1B"/>
<path d="M241.913 77.1448C242.069 81.1269 238.946 84.4064 234.963 84.5625C234.339 84.5625 233.792 84.5625 233.246 84.4064C230.122 83.7036 227.702 80.9708 227.624 77.6133C227.468 73.6311 230.591 70.3517 234.573 70.1955C235.276 70.1955 235.9 70.2736 236.525 70.4297C239.492 71.1325 241.757 73.8653 241.913 77.1448Z" fill="url(#paint5_linear_1_251)"/>
<path opacity="0.2" d="M233.089 76.5982C232.387 78.238 230.981 79.1749 229.81 78.6284C228.717 78.1599 228.326 76.4421 229.029 74.8804C229.732 73.2407 231.137 72.3037 232.309 72.8503C233.402 73.3188 233.792 75.0366 233.089 76.5982Z" fill="white"/>
<path opacity="0.2" d="M241.913 77.1448C242.069 81.1269 238.946 84.4064 234.963 84.5625C234.339 84.5625 233.792 84.5625 233.246 84.4064C239.883 80.9708 238.087 74.1776 236.525 70.4297C239.492 71.1325 241.757 73.8653 241.913 77.1448Z" fill="#1D1D1B"/>
<path d="M224.266 77.3011C224.422 81.2833 221.299 84.5627 217.317 84.7189C216.692 84.7189 216.146 84.7189 215.599 84.5627C212.476 83.86 210.055 81.1271 209.977 77.7696C209.821 73.7874 212.944 70.508 216.927 70.3518C217.629 70.3518 218.254 70.4299 218.879 70.5861C221.924 71.3669 224.188 74.0217 224.266 77.3011Z" fill="url(#paint6_linear_1_251)"/>
<path opacity="0.2" d="M215.521 76.8328C214.818 78.4725 213.413 79.4095 212.242 78.8629C211.149 78.3944 210.758 76.6766 211.461 75.115C212.164 73.4753 213.569 72.5383 214.74 73.0848C215.833 73.5533 216.224 75.1931 215.521 76.8328Z" fill="white"/>
<path opacity="0.2" d="M224.266 77.3011C224.422 81.2833 221.299 84.5627 217.317 84.7189C216.692 84.7189 216.146 84.7189 215.599 84.5627C222.236 81.1271 220.44 74.334 218.879 70.5861C221.924 71.3669 224.188 74.0217 224.266 77.3011Z" fill="#1D1D1B"/>
<path d="M290.636 22.8C290.792 26.7821 287.669 30.0616 283.686 30.2177C283.062 30.2177 282.515 30.2177 281.969 30.0616C278.845 29.3588 276.425 26.626 276.347 23.2685C276.191 19.2863 279.314 16.0069 283.296 15.8507C283.999 15.8507 284.623 15.9288 285.248 16.0849C288.215 16.8658 290.48 19.5205 290.636 22.8Z" fill="url(#paint7_linear_1_251)"/>
<path opacity="0.2" d="M281.813 22.3317C281.11 23.9714 279.704 24.9084 278.533 24.3618C277.44 23.8933 277.05 22.1755 277.752 20.6139C278.455 18.9742 279.86 18.0372 281.032 18.5838C282.125 18.9742 282.515 20.692 281.813 22.3317Z" fill="white"/>
<path opacity="0.2" d="M290.636 22.8001C290.792 26.7822 287.669 30.0617 283.686 30.2178C283.062 30.2178 282.515 30.2178 281.969 30.0617C288.606 26.6261 286.81 19.833 285.248 16.085C288.215 16.8658 290.48 19.5206 290.636 22.8001Z" fill="#1D1D1B"/>
<path d="M309.844 29.9835C310 33.9656 306.877 37.2451 302.895 37.4012C302.27 37.4012 301.723 37.4012 301.177 37.2451C298.053 36.5423 295.633 33.8095 295.555 30.4519C295.399 26.4698 298.522 23.1903 302.504 23.0342C303.207 23.0342 303.832 23.1123 304.456 23.2684C307.423 23.9712 309.688 26.704 309.844 29.9835Z" fill="url(#paint8_linear_1_251)"/>
<path opacity="0.2" d="M301.021 29.4367C300.318 31.0765 298.912 32.0134 297.741 31.4669C296.648 30.9984 296.258 29.2806 296.96 27.7189C297.663 26.0792 299.069 25.1422 300.24 25.6888C301.411 26.2354 301.723 27.797 301.021 29.4367Z" fill="white"/>
<path opacity="0.2" d="M309.844 29.9833C310 33.9654 306.877 37.2449 302.895 37.401C302.27 37.401 301.723 37.401 301.177 37.2449C307.814 33.8093 306.018 27.0161 304.456 23.2682C307.423 23.971 309.688 26.7038 309.844 29.9833Z" fill="#1D1D1B"/>
</g>
<mask id="mask1_1_251" style="mask-type:luminance" maskUnits="userSpaceOnUse" x="140" y="109" width="170" height="145">
<path d="M310 109.549H140.172V254H310V109.549Z" fill="white"/>
</mask>
<g mask="url(#mask1_1_251)">
<path d="M233.636 131.256C235.822 123.916 241.132 118.138 247.691 114.702C249.252 113.921 250.814 113.219 252.454 112.672C255.889 111.579 259.559 111.032 263.229 111.189C264.478 111.267 265.806 111.345 267.055 111.579C268.07 111.735 269.085 111.969 270.178 112.282C273.302 113.141 276.191 114.546 278.767 116.42C279.704 117.045 280.641 117.825 281.5 118.528C284.155 120.871 286.341 123.76 287.903 127.039C287.981 127.195 288.059 127.43 288.137 127.586C288.215 127.742 288.293 127.82 288.293 127.976C288.996 129.538 289.699 131.256 290.245 133.051C292.9 141.562 292.9 152.26 284.545 162.801C280.017 168.501 275.8 173.185 271.974 177.168L271.896 177.246C270.1 179.12 268.382 180.837 266.743 182.399L266.508 182.633C258.856 190.051 253.235 194.424 250.58 198.172C250.033 198.874 249.643 199.577 249.33 200.28C248.706 201.685 247.691 202.232 246.52 201.998C246.129 201.92 245.661 201.763 245.192 201.529C243.63 200.67 241.913 198.874 240.195 196.22C239.414 195.048 238.633 193.643 237.931 192.081C235.744 187.396 233.948 181.228 233.402 174.201C233.168 171.546 232.855 168.657 232.543 165.69C232.231 162.566 231.918 159.365 231.684 156.086C231.137 147.965 231.216 139.298 233.636 131.256Z" fill="url(#paint9_linear_1_251)"/>
<g opacity="0.5">
<g opacity="0.3">
<path d="M276.581 127.508L277.049 125.868C277.908 122.901 278.845 119.465 278.689 116.342C279.626 116.967 280.563 117.747 281.422 118.45C281.266 121.105 280.641 123.76 279.939 126.414C279.236 128.913 278.377 131.256 277.596 133.286C274.707 141.25 270.881 148.824 267.367 156.476C261.121 170.14 255.109 183.883 250.58 198.172C250.033 198.874 249.643 199.577 249.33 200.28C248.706 201.685 247.691 202.232 246.52 201.998C250.502 188.724 255.733 175.84 261.355 163.113C264.947 155.07 268.851 147.184 272.365 139.142C273.926 135.394 275.41 131.49 276.581 127.508Z" fill="white"/>
</g>
<g opacity="0.3">
<path d="M246.676 146.247C248.784 139.532 251.126 132.817 254.015 126.336C255.03 124.072 256.124 121.729 257.295 119.543C258.935 116.42 260.809 113.453 263.307 111.188C264.556 111.266 265.884 111.345 267.133 111.579C262.917 114.39 260.262 119.309 258.154 124.072C257.529 125.399 256.982 126.727 256.436 127.976C252.766 136.409 249.721 145.076 247.378 153.899C244.021 166.47 243.006 179.432 240.898 192.159C240.663 193.565 240.429 194.892 240.195 196.298C239.414 195.126 238.633 193.721 237.931 192.159C238.243 189.973 238.555 187.865 238.789 185.678C239.258 182.165 239.648 178.651 240.117 175.137C241.522 165.377 243.709 155.695 246.676 146.247Z" fill="white"/>
</g>
<g opacity="0.3">
<path d="M247.691 114.624C249.252 113.843 250.814 113.14 252.454 112.594C241.132 127.82 235.978 146.794 232.543 165.767C232.231 162.644 231.918 159.443 231.684 156.163C234.885 141.406 239.57 126.961 247.691 114.624Z" fill="white"/>
</g>
<g opacity="0.3">
<path d="M279.939 154.368C282.75 147.184 285.014 139.688 287.122 132.27C287.513 130.787 287.903 129.381 288.293 127.898C288.996 129.459 289.699 131.177 290.245 132.973C288.449 139.532 285.951 145.935 283.843 151.791C280.641 160.536 276.034 168.735 271.974 177.089L271.896 177.167L266.743 182.321L266.508 182.555C270.647 173.107 276.113 164.128 279.939 154.368Z" fill="white"/>
</g>
</g>
<path opacity="0.2" d="M233.636 131.256C235.822 123.916 241.132 118.138 247.691 114.702C249.252 113.921 250.814 113.219 252.454 112.672C255.889 111.579 259.559 111.032 263.229 111.189C264.478 111.267 265.806 111.345 267.055 111.579C268.07 111.735 269.085 111.969 270.178 112.282C273.302 113.141 276.191 114.546 278.767 116.42C279.704 117.045 280.641 117.825 281.5 118.528C284.155 120.871 286.341 123.76 287.903 127.039C286.263 127.195 283.765 127.117 280.017 126.493C279.158 126.336 278.143 126.18 277.128 125.946C274.551 125.399 271.506 124.619 267.836 123.604C264.478 122.588 261.199 122.901 258.154 124.072C256.748 124.619 255.421 125.399 254.093 126.336C241.132 135.706 233.089 162.879 238.868 185.679C239.414 187.865 240.117 190.051 240.976 192.159C241.6 193.877 242.381 195.517 243.24 197.157C244.099 198.796 244.724 200.28 245.192 201.607C243.63 200.748 241.913 198.952 240.195 196.298C239.414 195.126 238.633 193.721 237.931 192.159C235.744 187.474 233.948 181.306 233.402 174.279C233.168 171.624 232.855 168.735 232.543 165.768C232.231 162.644 231.918 159.443 231.684 156.164C231.137 147.965 231.216 139.298 233.636 131.256Z" fill="white"/>
<path d="M233.636 131.256C235.822 123.916 241.132 118.138 247.691 114.702C249.252 113.921 250.814 113.219 252.454 112.672C255.889 111.579 259.559 111.032 263.229 111.189C264.478 111.267 265.806 111.345 267.055 111.579C268.07 111.735 269.085 111.969 270.178 112.282C273.302 113.141 276.191 114.546 278.767 116.42C279.704 117.045 280.641 117.825 281.5 118.528C284.155 120.871 286.341 123.76 287.903 127.039C287.981 127.195 288.059 127.43 288.137 127.586C288.215 127.742 288.293 127.82 288.293 127.976C288.996 129.538 289.699 131.256 290.245 133.051C292.9 141.562 292.9 152.26 284.545 162.801C280.017 168.501 275.8 173.185 271.974 177.168L271.896 177.246C270.1 179.12 268.382 180.837 266.743 182.399L266.508 182.633C258.856 190.051 253.235 194.424 250.58 198.172C250.033 198.874 249.643 199.577 249.33 200.28C248.706 201.685 247.691 202.232 246.52 201.998C246.129 201.92 245.661 201.763 245.192 201.529C243.63 200.67 241.913 198.874 240.195 196.22C239.414 195.048 238.633 193.643 237.931 192.081C235.744 187.396 233.948 181.228 233.402 174.201C233.168 171.546 232.855 168.657 232.543 165.69C232.231 162.566 231.918 159.365 231.684 156.086C231.137 147.965 231.216 139.298 233.636 131.256Z" fill="url(#paint10_linear_1_251)"/>
<g opacity="0.5">
<g opacity="0.3">
<path d="M276.581 127.508L277.049 125.868C277.908 122.901 278.845 119.465 278.689 116.342C279.626 116.967 280.563 117.747 281.422 118.45C281.266 121.105 280.641 123.76 279.939 126.414C279.236 128.913 278.377 131.256 277.596 133.286C274.707 141.25 270.881 148.824 267.367 156.476C261.121 170.14 255.109 183.883 250.58 198.172C250.033 198.874 249.643 199.577 249.33 200.28C248.706 201.685 247.691 202.232 246.52 201.998C250.502 188.724 255.733 175.84 261.355 163.113C264.947 155.07 268.851 147.184 272.365 139.142C273.926 135.394 275.41 131.49 276.581 127.508Z" fill="white"/>
</g>
<g opacity="0.3">
<path d="M246.676 146.247C248.784 139.532 251.126 132.817 254.015 126.336C255.03 124.072 256.124 121.729 257.295 119.543C258.935 116.42 260.809 113.453 263.307 111.188C264.556 111.266 265.884 111.345 267.133 111.579C262.917 114.39 260.262 119.309 258.154 124.072C257.529 125.399 256.982 126.727 256.436 127.976C252.766 136.409 249.721 145.076 247.378 153.899C244.021 166.47 243.006 179.432 240.898 192.159C240.663 193.565 240.429 194.892 240.195 196.298C239.414 195.126 238.633 193.721 237.931 192.159C238.243 189.973 238.555 187.865 238.789 185.678C239.258 182.165 239.648 178.651 240.117 175.137C241.522 165.377 243.709 155.695 246.676 146.247Z" fill="white"/>
</g>
<g opacity="0.3">
<path d="M247.691 114.624C249.252 113.843 250.814 113.14 252.454 112.594C241.132 127.82 235.978 146.794 232.543 165.767C232.231 162.644 231.918 159.443 231.684 156.163C234.885 141.406 239.57 126.961 247.691 114.624Z" fill="white"/>
</g>
<g opacity="0.3">
<path d="M279.939 154.368C282.75 147.184 285.014 139.688 287.122 132.27C287.513 130.787 287.903 129.381 288.293 127.898C288.996 129.459 289.699 131.177 290.245 132.973C288.449 139.532 285.951 145.935 283.843 151.791C280.641 160.536 276.034 168.735 271.974 177.089L271.896 177.167L266.743 182.321L266.508 182.555C270.647 173.107 276.113 164.128 279.939 154.368Z" fill="white"/>
</g>
</g>
<path opacity="0.2" d="M233.636 131.256C235.822 123.916 241.132 118.138 247.691 114.702C249.252 113.921 250.814 113.219 252.454 112.672C255.889 111.579 259.559 111.032 263.229 111.189C264.478 111.267 265.806 111.345 267.055 111.579C268.07 111.735 269.085 111.969 270.178 112.282C273.302 113.141 276.191 114.546 278.767 116.42C279.704 117.045 280.641 117.825 281.5 118.528C284.155 120.871 286.341 123.76 287.903 127.039C286.263 127.195 283.765 127.117 280.017 126.493C279.158 126.336 278.143 126.18 277.128 125.946C274.551 125.399 271.506 124.619 267.836 123.604C264.478 122.588 261.199 122.901 258.154 124.072C256.748 124.619 255.421 125.399 254.093 126.336C241.132 135.706 233.089 162.879 238.868 185.679C239.414 187.865 240.117 190.051 240.976 192.159C241.6 193.877 242.381 195.517 243.24 197.157C244.099 198.796 244.724 200.28 245.192 201.607C243.63 200.748 241.913 198.952 240.195 196.298C239.414 195.126 238.633 193.721 237.931 192.159C235.744 187.474 233.948 181.306 233.402 174.279C233.168 171.624 232.855 168.735 232.543 165.768C232.231 162.644 231.918 159.443 231.684 156.164C231.137 147.965 231.216 139.298 233.636 131.256Z" fill="white"/>
<path d="M171.717 178.027C166.408 172.405 164.065 164.987 164.378 157.569C164.456 155.851 164.69 154.134 165.002 152.416C165.783 148.824 167.11 145.466 169.141 142.343C169.843 141.25 170.546 140.235 171.405 139.22C172.108 138.439 172.81 137.658 173.591 136.877C175.934 134.613 178.588 132.817 181.399 131.49C182.414 131.021 183.508 130.553 184.601 130.241C187.958 129.147 191.55 128.679 195.142 128.913C195.376 128.913 195.532 128.913 195.766 128.991C195.923 128.991 196.079 128.991 196.157 128.991C197.875 129.147 199.67 129.46 201.544 129.85C210.29 131.88 219.503 137.112 224.422 149.683C227.077 156.398 229.029 162.41 230.591 167.72V167.876C231.294 170.375 231.918 172.717 232.465 174.903L232.543 175.294C235.12 185.6 236.135 192.628 238.009 196.844C238.399 197.625 238.789 198.328 239.258 198.952C240.195 200.202 240.117 201.373 239.336 202.31C239.102 202.622 238.711 202.935 238.243 203.169C236.759 204.106 234.261 204.731 231.137 204.809C229.732 204.887 228.092 204.809 226.453 204.652C221.299 204.184 215.053 202.622 208.728 199.655C206.307 198.484 203.731 197.313 200.92 196.142C198.109 194.892 195.142 193.565 192.175 192.081C184.991 188.568 177.495 184.195 171.717 178.027Z" fill="url(#paint11_linear_1_251)"/>
<g opacity="0.5">
<g opacity="0.3">
<path d="M189.988 138.986L188.817 137.736C186.709 135.55 184.21 132.973 181.399 131.49C182.414 131.021 183.507 130.553 184.601 130.241C186.787 131.646 188.817 133.52 190.691 135.472C192.487 137.346 194.127 139.298 195.532 140.938C200.998 147.419 205.605 154.524 210.524 161.395C219.191 173.654 228.17 185.679 238.243 196.766C238.633 197.547 239.024 198.25 239.492 198.874C240.429 200.124 240.351 201.295 239.57 202.232C230.044 192.159 221.455 181.15 213.335 169.906C208.181 162.801 203.262 155.461 198.031 148.434C195.532 145.232 192.877 141.953 189.988 138.986Z" fill="white"/>
</g>
<g opacity="0.3">
<path d="M191.238 174.279C186.475 169.125 181.79 163.66 177.651 157.96C176.168 155.93 174.762 153.821 173.435 151.713C171.561 148.746 169.921 145.623 169.219 142.343C169.921 141.25 170.624 140.235 171.483 139.22C171.795 144.295 174.762 149.058 177.808 153.275C178.666 154.446 179.525 155.617 180.306 156.71C185.772 164.05 191.784 170.999 198.265 177.558C207.479 186.772 218.176 194.111 228.17 202.31C229.263 203.169 230.357 204.106 231.372 204.965C229.966 205.043 228.326 204.965 226.687 204.809C224.969 203.481 223.251 202.154 221.455 200.827C218.644 198.718 215.755 196.532 213.022 194.346C205.292 188.255 197.953 181.54 191.238 174.279Z" fill="white"/>
</g>
<g opacity="0.3">
<path d="M164.378 157.647C164.456 155.929 164.69 154.212 165.002 152.494C172.498 169.906 186.397 183.883 201.076 196.298C198.265 195.048 195.298 193.721 192.331 192.238C181.165 182.087 171.014 170.843 164.378 157.647Z" fill="white"/>
</g>
<g opacity="0.3">
<path d="M214.974 149.527C210.133 143.514 204.824 137.815 199.436 132.271C198.421 131.178 197.328 130.163 196.235 129.069C197.953 129.226 199.749 129.538 201.623 129.928C206.386 134.769 210.758 140.079 214.74 144.842C220.753 151.947 225.516 160.068 230.747 167.798V167.954L232.621 174.981L232.699 175.372C226.531 166.939 221.455 157.647 214.974 149.527Z" fill="white"/>
</g>
</g>
<path opacity="0.2" d="M171.717 178.027C166.408 172.405 164.065 164.987 164.378 157.569C164.456 155.851 164.69 154.134 165.002 152.416C165.783 148.824 167.11 145.466 169.141 142.343C169.843 141.25 170.546 140.235 171.405 139.22C172.108 138.439 172.81 137.658 173.591 136.877C175.934 134.613 178.588 132.817 181.399 131.49C182.414 131.021 183.508 130.553 184.601 130.241C187.958 129.147 191.55 128.679 195.142 128.913C194.517 130.397 193.19 132.505 190.691 135.472C190.145 136.175 189.52 136.877 188.817 137.658C187.021 139.61 184.835 141.875 182.102 144.529C179.603 146.95 178.12 149.917 177.651 153.197C177.417 154.68 177.417 156.242 177.573 157.881C179.213 173.81 198.734 194.346 221.377 200.748C223.564 201.373 225.828 201.841 228.014 202.154C229.81 202.466 231.684 202.622 233.48 202.7C235.276 202.778 236.916 202.935 238.321 203.169C236.837 204.106 234.339 204.731 231.216 204.809C229.81 204.887 228.17 204.809 226.531 204.652C221.377 204.184 215.131 202.622 208.806 199.655C206.386 198.484 203.809 197.313 200.998 196.142C198.187 194.892 195.22 193.565 192.253 192.081C184.991 188.568 177.495 184.195 171.717 178.027Z" fill="white"/>
<path d="M181.321 255.093C173.825 256.889 166.173 255.171 159.927 251.189C158.443 250.252 157.116 249.237 155.789 248.066C153.056 245.645 150.791 242.756 149.073 239.477C148.449 238.384 147.98 237.134 147.512 235.963C147.121 234.948 146.809 233.933 146.575 232.918C145.794 229.795 145.56 226.593 145.872 223.47C145.95 222.299 146.106 221.206 146.419 220.034C147.121 216.599 148.527 213.241 150.557 210.274C150.635 210.118 150.791 209.962 150.869 209.728C150.947 209.649 151.026 209.493 151.104 209.415C152.119 208.01 153.29 206.604 154.539 205.199C160.63 198.64 169.843 193.252 183.117 195.282C190.301 196.376 196.469 197.625 201.857 198.952H202.013C204.512 199.577 206.854 200.202 209.04 200.826L209.431 200.904C219.659 203.793 226.296 206.448 230.825 206.917C231.684 206.995 232.543 206.995 233.246 206.917C234.807 206.76 235.744 207.307 236.213 208.478C236.369 208.869 236.447 209.337 236.447 209.884C236.525 211.68 235.822 214.1 234.339 216.833C233.714 218.082 232.855 219.488 231.918 220.893C228.951 225.188 224.5 229.716 218.722 233.777C216.536 235.26 214.194 236.978 211.773 238.774C209.275 240.57 206.62 242.522 203.887 244.318C197.094 248.847 189.52 253.141 181.321 255.093Z" fill="url(#paint12_linear_1_251)"/>
<g opacity="0.5">
<g opacity="0.3">
<path d="M156.647 219.722L155.008 220.112C152.041 220.815 148.527 221.752 145.95 223.392C146.028 222.221 146.184 221.127 146.497 219.956C148.839 218.785 151.494 217.926 154.149 217.301C156.647 216.677 159.146 216.286 161.332 215.896C169.687 214.412 178.12 213.944 186.553 213.163C201.466 211.758 216.38 210.04 231.059 206.917C231.918 206.995 232.777 206.995 233.48 206.917C235.042 206.76 235.979 207.307 236.447 208.478C222.939 211.68 209.196 213.632 195.376 215.037C186.631 215.974 177.808 216.521 169.141 217.536C164.846 218.082 160.708 218.707 156.647 219.722Z" fill="white"/>
</g>
<g opacity="0.3">
<path d="M187.88 236.275C181.009 237.837 173.982 239.164 166.954 239.867C164.456 240.101 161.957 240.335 159.458 240.414C155.945 240.57 152.431 240.414 149.23 239.398C148.605 238.305 148.137 237.056 147.668 235.885C152.197 238.149 157.819 237.993 162.972 237.446C164.456 237.29 165.861 237.134 167.188 236.978C176.324 235.963 185.303 234.245 194.205 231.825C206.776 228.467 218.488 222.845 230.591 218.238C231.918 217.77 233.168 217.223 234.495 216.755C233.87 218.004 233.011 219.41 232.074 220.815C230.044 221.596 228.014 222.455 226.062 223.314C222.783 224.719 219.503 226.125 216.224 227.374C206.932 231.122 197.484 234.089 187.88 236.275Z" fill="white"/>
</g>
<g opacity="0.3">
<path d="M160.005 251.189C158.521 250.252 157.194 249.237 155.867 248.066C174.684 250.252 193.736 245.177 211.851 238.696C209.353 240.492 206.698 242.444 203.965 244.24C189.52 248.846 174.684 252.048 160.005 251.189Z" fill="white"/>
</g>
<g opacity="0.3">
<path d="M178.198 203.403C170.546 204.574 162.972 206.37 155.476 208.244C153.993 208.634 152.587 209.025 151.104 209.415C152.119 208.01 153.29 206.604 154.539 205.199C161.098 203.481 167.891 202.388 174.06 201.295C183.195 199.655 192.643 199.577 201.935 198.952H202.091L209.118 200.826L209.509 200.904C199.124 202.076 188.583 201.763 178.198 203.403Z" fill="white"/>
</g>
</g>
<path opacity="0.2" d="M181.321 255.093C173.825 256.889 166.173 255.171 159.927 251.189C158.443 250.252 157.116 249.237 155.789 248.065C153.056 245.645 150.791 242.756 149.073 239.476C148.449 238.383 147.98 237.134 147.512 235.963C147.121 234.948 146.809 233.933 146.575 232.918C145.794 229.794 145.56 226.593 145.872 223.47C145.95 222.298 146.106 221.205 146.419 220.034C147.121 216.598 148.527 213.241 150.557 210.274C151.494 211.601 152.743 213.788 154.071 217.379C154.383 218.238 154.695 219.097 155.008 220.112C155.789 222.611 156.726 225.656 157.584 229.326C158.443 232.761 160.239 235.416 162.894 237.524C164.065 238.461 165.393 239.242 166.876 239.945C181.477 246.504 209.04 239.867 225.906 223.47C227.546 221.908 229.107 220.19 230.513 218.394C231.684 216.989 232.699 215.427 233.714 213.944C234.651 212.382 235.666 211.055 236.525 210.04C236.603 211.835 235.9 214.256 234.417 216.989C233.792 218.238 232.933 219.644 231.996 221.049C229.029 225.344 224.579 229.872 218.801 233.933C216.614 235.416 214.272 237.134 211.851 238.93C209.353 240.726 206.698 242.678 203.965 244.474C197.094 248.846 189.52 253.141 181.321 255.093Z" fill="white"/>
<path d="M252.844 285.233C250.658 292.573 245.348 298.351 238.789 301.786C237.228 302.567 235.666 303.27 234.026 303.816C230.591 304.909 226.921 305.456 223.251 305.3C222.002 305.222 220.674 305.144 219.425 304.909C218.41 304.753 217.395 304.519 216.302 304.207C213.179 303.348 210.29 301.942 207.713 300.068C206.776 299.444 205.839 298.663 204.98 297.96C202.325 295.618 200.139 292.729 198.577 289.449C198.499 289.293 198.421 289.059 198.343 288.903C198.265 288.747 198.187 288.668 198.187 288.512C197.484 286.951 196.781 285.233 196.235 283.437C193.58 274.926 193.58 264.229 201.935 253.688C206.464 247.988 210.68 243.303 214.506 239.321L214.584 239.243C216.38 237.369 218.098 235.651 219.737 234.089L219.972 233.855C227.624 226.437 233.246 222.065 235.9 218.317C236.447 217.614 236.837 216.911 237.15 216.209C237.774 214.803 238.789 214.257 239.961 214.491C240.351 214.569 240.82 214.725 241.288 214.959C242.85 215.818 244.567 217.614 246.285 220.269C247.066 221.44 247.847 222.846 248.55 224.407C250.736 229.092 252.532 235.261 253.078 242.288C253.313 244.943 253.625 247.832 253.937 250.799C254.25 253.922 254.562 257.123 254.796 260.403C255.343 268.523 255.265 277.19 252.844 285.233Z" fill="url(#paint13_linear_1_251)"/>
<g opacity="0.5">
<g opacity="0.3">
<path d="M209.899 288.981L209.431 290.621C208.572 293.588 207.635 297.024 207.791 300.147C206.854 299.522 205.917 298.741 205.058 298.039C205.214 295.384 205.839 292.729 206.542 290.074C207.244 287.576 208.103 285.233 208.884 283.203C211.773 275.239 215.599 267.665 219.113 260.013C225.359 246.349 231.372 232.606 235.9 218.317C236.447 217.614 236.837 216.912 237.15 216.209C237.774 214.803 238.789 214.257 239.961 214.491C235.978 227.765 230.747 240.649 225.125 253.376C221.533 261.418 217.629 269.305 214.116 277.347C212.554 281.095 210.992 284.999 209.899 288.981Z" fill="white"/>
</g>
<g opacity="0.3">
<path d="M239.804 270.242C237.696 276.957 235.354 283.672 232.465 290.152C231.45 292.417 230.357 294.759 229.185 296.946C227.546 300.069 225.672 303.036 223.173 305.3C221.924 305.222 220.596 305.144 219.347 304.91C223.563 302.099 226.218 297.18 228.326 292.417C228.951 291.089 229.498 289.762 230.044 288.513C233.714 280.08 236.759 271.413 239.102 262.59C242.459 250.018 243.474 237.057 245.583 224.329C245.817 222.924 246.051 221.597 246.285 220.191C247.066 221.362 247.847 222.768 248.55 224.329C248.237 226.516 247.925 228.624 247.691 230.81C247.222 234.324 246.832 237.838 246.363 241.351C244.88 251.112 242.772 260.794 239.804 270.242Z" fill="white"/>
</g>
<g opacity="0.3">
<path d="M238.789 301.787C237.228 302.567 235.666 303.27 234.026 303.817C245.348 288.591 250.502 269.617 253.937 250.643C254.25 253.766 254.562 256.968 254.796 260.247C251.595 275.083 246.91 289.45 238.789 301.787Z" fill="white"/>
</g>
<g opacity="0.3">
<path d="M206.542 262.121C203.731 269.305 201.466 276.801 199.358 284.218C198.968 285.702 198.577 287.107 198.187 288.591C197.484 287.029 196.781 285.311 196.235 283.516C198.031 276.957 200.529 270.554 202.638 264.698C205.839 255.953 210.446 247.754 214.506 239.399L214.584 239.321L219.737 234.168L219.972 233.934C215.833 243.382 210.29 252.361 206.542 262.121Z" fill="white"/>
</g>
</g>
<path opacity="0.2" d="M252.844 285.233C250.658 292.573 245.348 298.351 238.789 301.787C237.228 302.567 235.666 303.27 234.026 303.817C230.591 304.91 226.921 305.456 223.251 305.3C222.002 305.222 220.674 305.144 219.425 304.91C218.41 304.754 217.395 304.519 216.302 304.207C213.179 303.348 210.29 301.943 207.713 300.069C206.776 299.444 205.839 298.663 204.98 297.961C202.325 295.618 200.139 292.729 198.577 289.45C200.217 289.293 202.716 289.372 206.464 289.996C207.322 290.152 208.338 290.309 209.353 290.543C211.929 291.089 214.975 291.87 218.644 292.885C222.002 293.9 225.281 293.588 228.326 292.417C229.732 291.87 231.059 291.089 232.387 290.152C245.348 280.783 253.391 253.61 247.613 230.81C247.066 228.624 246.363 226.438 245.504 224.329C244.88 222.612 244.099 220.972 243.24 219.332C242.381 217.692 241.757 216.209 241.288 214.882C242.85 215.74 244.567 217.536 246.285 220.191C247.066 221.362 247.847 222.768 248.55 224.329C250.736 229.014 252.532 235.183 253.078 242.21C253.313 244.865 253.625 247.754 253.937 250.721C254.25 253.844 254.562 257.046 254.796 260.325C255.343 268.524 255.265 277.191 252.844 285.233Z" fill="white"/>
<path d="M314.763 238.462C320.073 244.084 322.415 251.502 322.103 258.919C322.025 260.637 321.79 262.355 321.478 264.073C320.697 267.665 319.37 271.022 317.34 274.145C316.637 275.238 315.934 276.254 315.075 277.269C314.373 278.049 313.67 278.83 312.889 279.611C310.547 281.875 307.892 283.671 305.081 284.999C304.066 285.467 302.973 285.936 301.88 286.248C298.522 287.341 294.93 287.81 291.338 287.575C291.104 287.575 290.948 287.575 290.714 287.497C290.558 287.497 290.401 287.497 290.323 287.497C288.606 287.341 286.81 287.029 284.936 286.638C276.191 284.608 266.977 279.377 262.058 266.806C259.403 260.091 257.451 254.078 255.889 248.769V248.613C255.187 246.114 254.562 243.771 254.015 241.585L253.937 241.195C251.361 230.888 250.346 223.861 248.472 219.644C248.081 218.863 247.691 218.161 247.222 217.536C246.285 216.287 246.363 215.115 247.144 214.178C247.378 213.866 247.769 213.554 248.237 213.32C249.721 212.383 252.22 211.758 255.343 211.68C256.748 211.602 258.388 211.68 260.028 211.836C265.181 212.305 271.428 213.866 277.752 216.833C280.173 218.005 282.749 219.176 285.56 220.347C288.371 221.596 291.338 222.924 294.306 224.407C301.489 227.843 308.985 232.293 314.763 238.462Z" fill="url(#paint14_linear_1_251)"/>
<g opacity="0.5">
<g opacity="0.3">
<path d="M296.492 277.503L297.663 278.752C299.771 280.938 302.27 283.515 305.081 284.998C304.066 285.467 302.973 285.935 301.88 286.248C299.693 284.842 297.663 282.968 295.789 281.016C293.993 279.142 292.354 277.19 290.948 275.551C285.482 269.07 280.876 261.964 275.956 255.093C267.289 242.834 258.31 230.81 248.237 219.722C247.847 218.941 247.457 218.239 246.988 217.614C246.051 216.365 246.129 215.193 246.91 214.256C256.436 224.329 265.025 235.338 273.145 246.582C278.299 253.688 283.218 261.027 288.449 268.055C290.948 271.256 293.603 274.535 296.492 277.503Z" fill="white"/>
</g>
<g opacity="0.3">
<path d="M295.164 242.21C299.927 247.363 304.612 252.829 308.751 258.529C310.234 260.559 311.64 262.667 312.967 264.775C314.841 267.742 316.481 270.866 317.184 274.145C316.481 275.238 315.778 276.253 314.919 277.268C314.607 272.193 311.64 267.43 308.595 263.214C307.736 262.042 306.877 260.871 306.096 259.778C300.63 252.438 294.618 245.489 288.137 238.93C278.923 229.717 268.226 222.377 258.232 214.178C257.139 213.319 256.046 212.382 255.03 211.524C256.436 211.445 258.076 211.524 259.715 211.68C261.433 213.007 263.151 214.335 264.947 215.662C267.758 217.77 270.647 219.956 273.38 222.143C281.188 228.233 288.449 234.948 295.164 242.21Z" fill="white"/>
</g>
<g opacity="0.3">
<path d="M322.025 258.841C321.947 260.559 321.712 262.277 321.4 263.994C313.904 246.582 300.006 232.606 285.326 220.191C288.137 221.44 291.104 222.767 294.071 224.251C305.237 234.402 315.466 245.645 322.025 258.841Z" fill="white"/>
</g>
<g opacity="0.3">
<path d="M271.506 266.961C276.347 272.974 281.656 278.674 287.044 284.218C288.059 285.311 289.152 286.326 290.245 287.419C288.528 287.263 286.732 286.95 284.858 286.56C280.095 281.719 275.722 276.409 271.74 271.646C265.728 264.541 260.965 256.42 255.733 248.69V248.534L253.859 241.507L253.781 241.116C259.95 249.471 264.947 258.841 271.506 266.961Z" fill="white"/>
</g>
</g>
<path opacity="0.2" d="M314.763 238.462C320.073 244.084 322.415 251.502 322.103 258.919C322.025 260.637 321.79 262.355 321.478 264.073C320.697 267.665 319.37 271.022 317.34 274.145C316.637 275.238 315.934 276.254 315.075 277.269C314.373 278.049 313.67 278.83 312.889 279.611C310.547 281.875 307.892 283.671 305.081 284.999C304.066 285.467 302.973 285.936 301.88 286.248C298.522 287.341 294.93 287.81 291.338 287.575C291.963 286.092 293.291 283.984 295.789 281.016C296.336 280.314 296.96 279.611 297.663 278.83C299.459 276.878 301.645 274.614 304.378 271.959C306.877 269.538 308.36 266.571 308.829 263.292C309.063 261.808 309.063 260.247 308.907 258.607C307.267 242.678 287.747 222.143 265.103 215.74C262.917 215.115 260.652 214.647 258.466 214.335C256.67 214.022 254.796 213.866 253 213.788C251.204 213.71 249.565 213.554 248.159 213.32C249.643 212.383 252.141 211.758 255.265 211.68C256.67 211.602 258.31 211.68 259.95 211.836C265.103 212.305 271.35 213.866 277.674 216.833C280.095 218.005 282.671 219.176 285.482 220.347C288.293 221.596 291.26 222.924 294.227 224.407C301.489 227.843 308.985 232.293 314.763 238.462Z" fill="white"/>
<path d="M305.159 161.395C312.655 159.599 320.307 161.317 326.553 165.299C328.037 166.236 329.364 167.251 330.692 168.423C333.425 170.843 335.689 173.732 337.407 177.012C338.031 178.105 338.5 179.354 338.968 180.525C339.359 181.54 339.671 182.555 339.905 183.57C340.686 186.694 340.92 189.895 340.608 193.018C340.53 194.19 340.374 195.283 340.062 196.454C339.359 199.89 337.953 203.247 335.923 206.214C335.845 206.37 335.689 206.526 335.611 206.761C335.533 206.839 335.455 206.995 335.377 207.073C334.362 208.479 333.19 209.884 331.941 211.289C325.851 217.848 316.637 223.236 303.363 221.206C296.18 220.113 290.011 218.863 284.623 217.536H284.467C281.969 216.911 279.626 216.287 277.44 215.662L277.05 215.584C266.821 212.695 260.184 210.04 255.655 209.572C254.796 209.494 253.937 209.494 253.235 209.572C251.673 209.728 250.736 209.181 250.267 208.01C250.111 207.62 250.033 207.151 250.033 206.605C249.955 204.809 250.658 202.388 252.141 199.655C252.766 198.406 253.625 197.001 254.562 195.673C257.529 191.379 261.98 186.85 267.758 182.79C269.944 181.306 272.287 179.588 274.707 177.792C277.206 175.997 279.86 174.044 282.593 172.249C289.386 167.642 296.882 163.347 305.159 161.395Z" fill="url(#paint15_linear_1_251)"/>
<g opacity="0.5">
<g opacity="0.3">
<path d="M329.833 196.766L331.473 196.376C334.44 195.673 337.953 194.736 340.53 193.097C340.452 194.268 340.296 195.361 339.983 196.532C337.641 197.703 334.986 198.562 332.331 199.187C329.833 199.812 327.334 200.202 325.148 200.592C316.793 202.076 308.36 202.544 299.928 203.325C285.014 204.731 270.1 206.449 255.421 209.572C254.562 209.494 253.703 209.494 253 209.572C251.439 209.728 250.502 209.181 250.033 208.01C263.541 204.809 277.284 202.857 291.104 201.451C299.849 200.514 308.673 199.968 317.34 198.953C321.634 198.406 325.773 197.781 329.833 196.766Z" fill="white"/>
</g>
<g opacity="0.3">
<path d="M298.6 180.213C305.471 178.651 312.499 177.324 319.526 176.621C322.025 176.387 324.523 176.153 327.022 176.075C330.536 175.918 334.049 176.075 337.251 177.09C337.875 178.183 338.344 179.432 338.812 180.603C334.283 178.339 328.662 178.495 323.508 179.042C322.025 179.198 320.619 179.354 319.292 179.51C310.156 180.525 301.177 182.243 292.275 184.664C279.704 188.021 267.992 193.643 255.889 198.25C254.562 198.718 253.313 199.265 251.985 199.733C252.61 198.484 253.469 197.079 254.406 195.751C256.436 194.97 258.466 194.112 260.418 193.253C263.698 191.847 266.977 190.442 270.256 189.192C279.47 185.366 288.996 182.399 298.6 180.213Z" fill="white"/>
</g>
<g opacity="0.3">
<path d="M326.475 165.299C327.959 166.236 329.286 167.251 330.614 168.423C311.796 166.236 292.744 171.312 274.629 177.792C277.128 175.997 279.782 174.045 282.515 172.249C296.882 167.642 311.718 164.44 326.475 165.299Z" fill="white"/>
</g>
<g opacity="0.3">
<path d="M308.204 213.085C315.856 211.914 323.43 210.118 330.926 208.244C332.409 207.854 333.815 207.463 335.298 207.073C334.283 208.479 333.112 209.884 331.863 211.29C325.304 213.007 318.511 214.1 312.342 215.194C303.207 216.833 293.759 216.911 284.467 217.536H284.311L277.284 215.662L276.893 215.584C287.356 214.413 297.897 214.647 308.204 213.085Z" fill="white"/>
</g>
</g>
<path opacity="0.2" d="M305.159 161.395C312.655 159.599 320.307 161.317 326.553 165.299C328.037 166.236 329.364 167.251 330.692 168.423C333.425 170.843 335.689 173.732 337.407 177.012C338.031 178.105 338.5 179.354 338.968 180.525C339.359 181.54 339.671 182.555 339.905 183.57C340.686 186.694 340.92 189.895 340.608 193.018C340.53 194.19 340.374 195.283 340.062 196.454C339.359 199.889 337.953 203.247 335.923 206.214C334.986 204.887 333.737 202.7 332.41 199.109C332.097 198.25 331.785 197.391 331.473 196.376C330.692 193.877 329.755 190.832 328.896 187.162C328.037 183.727 326.241 181.072 323.586 178.964C322.415 178.027 321.088 177.246 319.604 176.543C305.003 169.984 277.44 176.621 260.574 193.018C258.935 194.58 257.373 196.298 255.967 198.094C254.796 199.499 253.781 201.061 252.766 202.544C251.829 204.106 250.814 205.433 249.955 206.448C249.877 204.652 250.58 202.232 252.063 199.499C252.688 198.25 253.547 196.844 254.484 195.517C257.451 191.222 261.902 186.694 267.68 182.633C269.866 181.15 272.209 179.432 274.629 177.636C277.128 175.84 279.782 173.888 282.515 172.092C289.386 167.642 296.882 163.347 305.159 161.395Z" fill="white"/>
<path d="M243.865 223.47C253.912 223.47 262.058 215.325 262.058 205.277C262.058 195.229 253.912 187.084 243.865 187.084C233.817 187.084 225.672 195.229 225.672 205.277C225.672 215.325 233.817 223.47 243.865 223.47Z" fill="url(#paint16_linear_1_251)"/>
</g>
<mask id="mask2_1_251" style="mask-type:luminance" maskUnits="userSpaceOnUse" x="0" y="152" width="166" height="102">
<path d="M165.08 152.494H0.0153809V253.922H165.08V152.494Z" fill="white"/>
</mask>
<g mask="url(#mask2_1_251)">
<path d="M102.146 184.741C100.741 206.838 86.2957 233.698 86.2957 233.698L77.7067 233.23C77.7067 233.23 76.2232 229.482 74.3492 223.704C71.0698 213.475 66.6191 196.922 67.2438 182.789C67.5561 175.449 69.7424 169.749 72.5533 165.455C78.2533 156.632 90.356 156.241 96.6806 163.659C97.5395 164.596 98.2422 165.689 98.7888 166.86C101.053 171.545 102.615 177.48 102.146 184.741Z" fill="url(#paint17_linear_1_251)"/>
<path opacity="0.2" d="M102.146 184.741C100.741 206.838 86.2958 233.698 86.2958 233.698L77.7068 233.23C77.7068 233.23 76.2232 229.482 74.3492 223.704C76.1451 223.47 78.5657 223.157 81.6889 222.689C90.6683 221.361 101.366 182.086 96.6806 163.659C97.5395 164.596 98.2423 165.689 98.7888 166.86C101.053 171.545 102.615 177.48 102.146 184.741Z" fill="#1D1D1B"/>
<path d="M51.7836 189.27C68.1808 204.183 80.2054 232.215 80.2054 232.215L74.5054 238.617C74.5054 238.617 70.6794 237.446 64.9794 235.338C54.9849 231.59 39.2124 224.641 28.5933 215.427C23.0495 210.664 20.0043 205.355 18.3646 200.435C15.0071 190.519 22.2687 180.837 32.0289 180.447C33.2782 180.368 34.5275 180.525 35.8549 180.759C40.7741 181.93 46.3179 184.351 51.7836 189.27Z" fill="url(#paint18_linear_1_251)"/>
<path opacity="0.2" d="M51.7836 189.27C68.1808 204.184 80.2054 232.215 80.2054 232.215L74.5054 238.618C74.5054 238.618 70.6794 237.446 64.9794 235.338C65.9945 233.777 67.1657 231.747 68.7274 229.014C73.2561 221.127 49.285 188.333 31.8728 180.525C33.1221 180.447 34.3714 180.603 35.6988 180.837C40.7741 181.93 46.3179 184.351 51.7836 189.27Z" fill="#1D1D1B"/>
<path d="M23.9084 231.512C45.7713 227.999 75.2081 236.119 75.2081 236.119L76.6917 244.552C76.6917 244.552 73.4123 246.816 68.1808 249.94C58.9671 255.405 43.8193 263.448 29.9207 265.946C22.7372 267.274 16.6468 266.415 11.8057 264.619C1.96742 261.027 -1.15585 249.315 4.70029 241.507C5.40302 240.492 6.34 239.555 7.35507 238.696C11.2592 235.494 16.6468 232.683 23.9084 231.512Z" fill="url(#paint19_linear_1_251)"/>
<path opacity="0.2" d="M23.9084 231.512C45.7713 227.999 75.2081 236.119 75.2081 236.119L76.6917 244.552C76.6917 244.552 73.4123 246.816 68.1808 249.94C67.5561 248.222 66.6972 245.958 65.6041 242.99C62.3246 234.558 21.644 232.84 4.70029 241.507C5.40302 240.492 6.34 239.555 7.35507 238.696C11.2592 235.495 16.6468 232.684 23.9084 231.512Z" fill="#1D1D1B"/>
<path d="M39.5248 279.61C50.3781 260.324 75.052 242.365 75.052 242.365L82.5478 246.504C82.5478 246.504 82.3136 250.486 81.4547 256.576C79.9711 267.195 76.7698 284.061 70.1328 296.476C66.6972 302.957 62.2466 307.095 57.7959 309.828C48.8165 315.294 37.807 310.453 35.3084 301.005C34.996 299.834 34.7618 298.506 34.7618 297.179C34.7618 291.947 35.933 285.935 39.5248 279.61Z" fill="url(#paint20_linear_1_251)"/>
<path opacity="0.2" d="M39.5248 279.61C50.3781 260.324 75.052 242.365 75.052 242.365L82.5478 246.504C82.5478 246.504 82.3136 250.486 81.4547 256.576C79.7369 255.952 77.3944 255.249 74.4273 254.312C65.7602 251.657 39.1344 282.343 35.3084 301.005C34.996 299.834 34.7618 298.506 34.7618 297.179C34.7618 291.947 35.933 285.935 39.5248 279.61Z" fill="#1D1D1B"/>
<path d="M86.8423 297.413C78.5657 276.878 79.893 246.426 79.893 246.426L87.7793 243.146C87.7793 243.146 90.7464 245.879 94.9628 250.252C102.381 257.982 113.546 271.022 119.09 283.983C121.979 290.698 122.448 296.788 121.823 301.942C120.574 312.327 109.798 317.949 100.897 314.045C99.7258 313.576 98.6327 312.873 97.6176 312.093C93.5574 308.813 89.5752 304.128 86.8423 297.413Z" fill="url(#paint21_linear_1_251)"/>
<path opacity="0.2" d="M86.8423 297.413C78.5657 276.878 79.893 246.426 79.893 246.426L87.7793 243.146C87.7793 243.146 90.7464 245.879 94.9628 250.252C93.4012 251.267 91.3711 252.516 88.7944 254.312C81.2985 259.387 88.7163 299.365 100.897 314.045C99.7258 313.576 98.6327 312.873 97.6176 312.093C93.5574 308.813 89.5752 304.128 86.8423 297.413Z" fill="#1D1D1B"/>
<path d="M130.256 271.412C109.018 265.087 86.0615 245.02 86.0615 245.02L88.404 236.744C88.404 236.744 92.3861 236.119 98.3984 235.573C109.096 234.636 126.274 234.011 139.86 237.759C146.887 239.711 151.963 243.068 155.632 246.816C162.972 254.312 160.63 266.181 152.041 270.709C150.947 271.334 149.776 271.724 148.449 272.037C143.374 273.286 137.283 273.52 130.256 271.412Z" fill="url(#paint22_linear_1_251)"/>
<path opacity="0.2" d="M130.256 271.412C109.018 265.088 86.0615 245.021 86.0615 245.021L88.4039 236.744C88.4039 236.744 92.3861 236.119 98.3984 235.573C98.1642 237.369 98.008 239.789 97.7738 242.912C97.071 251.97 132.911 271.1 152.041 270.632C150.947 271.256 149.776 271.647 148.449 271.959C143.374 273.286 137.283 273.521 130.256 271.412Z" fill="#1D1D1B"/>
<path d="M137.049 221.283C118.856 233.933 88.8725 239.398 88.8725 239.398L83.8752 232.371C83.8752 232.371 85.8273 228.857 89.1848 223.782C95.119 214.881 105.348 201.06 116.748 192.705C122.682 188.411 128.46 186.537 133.613 186.068C144.076 184.975 151.884 194.189 150.011 203.793C149.776 205.042 149.386 206.214 148.839 207.463C146.731 212.226 143.061 217.145 137.049 221.283Z" fill="url(#paint23_linear_1_251)"/>
<path opacity="0.2" d="M137.049 221.283C118.856 233.932 88.8724 239.398 88.8724 239.398L83.8752 232.371C83.8752 232.371 85.8273 228.857 89.1848 223.782C90.5122 225.109 92.23 226.749 94.4943 228.857C101.131 235.026 138.454 218.941 150.01 203.793C149.776 205.042 149.386 206.213 148.839 207.463C146.731 212.226 143.061 217.145 137.049 221.283Z" fill="#1D1D1B"/>
<path d="M81.6108 251.111C88.1225 251.111 93.4012 245.832 93.4012 239.32C93.4012 232.809 88.1225 227.53 81.6108 227.53C75.0992 227.53 69.8205 232.809 69.8205 239.32C69.8205 245.832 75.0992 251.111 81.6108 251.111Z" fill="url(#paint24_linear_1_251)"/>
</g>
<defs>
<linearGradient id="paint0_linear_1_251" x1="230.605" y1="27.2747" x2="247.095" y2="43.4025" gradientUnits="userSpaceOnUse">
<stop stop-color="#E5458E"/>
<stop offset="1" stop-color="#A9025A"/>
</linearGradient>
<linearGradient id="paint1_linear_1_251" x1="204.274" y1="83.8265" x2="220.764" y2="99.9542" gradientUnits="userSpaceOnUse">
<stop stop-color="#E5458E"/>
<stop offset="1" stop-color="#A9025A"/>
</linearGradient>
<linearGradient id="paint2_linear_1_251" x1="264.353" y1="14.3089" x2="269.888" y2="36.7006" gradientUnits="userSpaceOnUse">
<stop stop-color="#E5458E"/>
<stop offset="1" stop-color="#A9025A"/>
</linearGradient>
<linearGradient id="paint3_linear_1_251" x1="236.499" y1="47.5542" x2="249.554" y2="60.322" gradientUnits="userSpaceOnUse">
<stop stop-color="#E5458E"/>
<stop offset="1" stop-color="#A9025A"/>
</linearGradient>
<linearGradient id="paint4_linear_1_251" x1="222.569" y1="51.004" x2="235.624" y2="63.7717" gradientUnits="userSpaceOnUse">
<stop stop-color="#E5458E"/>
<stop offset="1" stop-color="#A9025A"/>
</linearGradient>
<linearGradient id="paint5_linear_1_251" x1="224.873" y1="67.7249" x2="237.927" y2="80.4927" gradientUnits="userSpaceOnUse">
<stop stop-color="#E5458E"/>
<stop offset="1" stop-color="#A9025A"/>
</linearGradient>
<linearGradient id="paint6_linear_1_251" x1="207.289" y1="67.9308" x2="220.343" y2="80.6985" gradientUnits="userSpaceOnUse">
<stop stop-color="#E5458E"/>
<stop offset="1" stop-color="#A9025A"/>
</linearGradient>
<linearGradient id="paint7_linear_1_251" x1="273.605" y1="13.4169" x2="286.659" y2="26.1846" gradientUnits="userSpaceOnUse">
<stop stop-color="#E5458E"/>
<stop offset="1" stop-color="#A9025A"/>
</linearGradient>
<linearGradient id="paint8_linear_1_251" x1="292.812" y1="20.5447" x2="305.866" y2="33.3124" gradientUnits="userSpaceOnUse">
<stop stop-color="#E5458E"/>
<stop offset="1" stop-color="#A9025A"/>
</linearGradient>
<linearGradient id="paint9_linear_1_251" x1="279.336" y1="93.6766" x2="241.76" y2="197.585" gradientUnits="userSpaceOnUse">
<stop offset="0.2345" stop-color="#AD307B"/>
<stop offset="1" stop-color="#47022E"/>
</linearGradient>
<linearGradient id="paint10_linear_1_251" x1="279.336" y1="93.6766" x2="241.76" y2="197.585" gradientUnits="userSpaceOnUse">
<stop offset="0.2345" stop-color="#AD307B"/>
<stop offset="1" stop-color="#47022E"/>
</linearGradient>
<linearGradient id="paint11_linear_1_251" x1="162.069" y1="119.692" x2="233.267" y2="204.188" gradientUnits="userSpaceOnUse">
<stop offset="0.2345" stop-color="#AD307B"/>
<stop offset="1" stop-color="#47022E"/>
</linearGradient>
<linearGradient id="paint12_linear_1_251" x1="125.965" y1="234.255" x2="234.74" y2="214.845" gradientUnits="userSpaceOnUse">
<stop offset="0.2345" stop-color="#AD307B"/>
<stop offset="1" stop-color="#47022E"/>
</linearGradient>
<linearGradient id="paint13_linear_1_251" x1="207.129" y1="322.805" x2="244.705" y2="218.897" gradientUnits="userSpaceOnUse">
<stop offset="0.2345" stop-color="#AD307B"/>
<stop offset="1" stop-color="#47022E"/>
</linearGradient>
<linearGradient id="paint14_linear_1_251" x1="324.396" y1="296.79" x2="253.198" y2="212.294" gradientUnits="userSpaceOnUse">
<stop offset="0.2345" stop-color="#AD307B"/>
<stop offset="1" stop-color="#47022E"/>
</linearGradient>
<linearGradient id="paint15_linear_1_251" x1="360.5" y1="182.227" x2="251.725" y2="201.637" gradientUnits="userSpaceOnUse">
<stop offset="0.2345" stop-color="#AD307B"/>
<stop offset="1" stop-color="#47022E"/>
</linearGradient>
<linearGradient id="paint16_linear_1_251" x1="305.411" y1="182.358" x2="211.8" y2="217.186" gradientUnits="userSpaceOnUse">
<stop offset="0.3881" stop-color="#D9609F"/>
<stop offset="0.4948" stop-color="#C55390"/>
<stop offset="0.7127" stop-color="#933368"/>
<stop offset="1" stop-color="#47022E"/>
</linearGradient>
<linearGradient id="paint17_linear_1_251" x1="87.9344" y1="114.102" x2="81.8364" y2="243.788" gradientUnits="userSpaceOnUse">
<stop offset="0.3132" stop-color="#E5458E"/>
<stop offset="1" stop-color="#A9025A"/>
</linearGradient>
<linearGradient id="paint18_linear_1_251" x1="-12.3358" y1="156.327" x2="85.25" y2="241.957" gradientUnits="userSpaceOnUse">
<stop offset="0.3132" stop-color="#E5458E"/>
<stop offset="1" stop-color="#A9025A"/>
</linearGradient>
<linearGradient id="paint19_linear_1_251" x1="-41.8427" y1="261.052" x2="85.9496" y2="238.144" gradientUnits="userSpaceOnUse">
<stop offset="0.3132" stop-color="#E5458E"/>
<stop offset="1" stop-color="#A9025A"/>
</linearGradient>
<linearGradient id="paint20_linear_1_251" x1="21.6401" y1="349.417" x2="83.4023" y2="235.219" gradientUnits="userSpaceOnUse">
<stop offset="0.3132" stop-color="#E5458E"/>
<stop offset="1" stop-color="#A9025A"/>
</linearGradient>
<linearGradient id="paint21_linear_1_251" x1="130.305" y1="354.877" x2="79.5295" y2="235.388" gradientUnits="userSpaceOnUse">
<stop offset="0.3132" stop-color="#E5458E"/>
<stop offset="1" stop-color="#A9025A"/>
</linearGradient>
<linearGradient id="paint22_linear_1_251" x1="202.323" y1="273.33" x2="77.2485" y2="238.518" gradientUnits="userSpaceOnUse">
<stop offset="0.3132" stop-color="#E5458E"/>
<stop offset="1" stop-color="#A9025A"/>
</linearGradient>
<linearGradient id="paint23_linear_1_251" x1="165.007" y1="179.576" x2="89.6495" y2="233.978" gradientUnits="userSpaceOnUse">
<stop offset="0.3132" stop-color="#E5458E"/>
<stop offset="1" stop-color="#A9025A"/>
</linearGradient>
<linearGradient id="paint24_linear_1_251" x1="89.8593" y1="217.927" x2="76.5238" y2="252.651" gradientUnits="userSpaceOnUse">
<stop stop-color="#FB6589"/>
<stop offset="1" stop-color="#F12174"/>
</linearGradient>
</defs>
</svg>
