<svg width="135" height="175" viewBox="0 0 135 175" fill="none" xmlns="http://www.w3.org/2000/svg">
<g clip-path="url(#clip0_1_7502)">
<path d="M104.622 4.93187C77.8127 1.74339 68.0521 21.9805 67.4013 23.2819C66.7506 21.9805 56.2742 2.13381 29.5951 6.23329C2.00493 10.4629 -1.44383 36.2961 1.35422 52.4988C5.64891 76.9655 53.4111 111.518 69.0281 121.93C69.0281 121.93 69.0281 121.93 69.0932 121.93C69.0932 121.93 69.0932 121.93 69.1583 121.93C84.3849 110.998 130.13 80.154 134.425 50.2213C136.702 33.9536 132.277 8.25049 104.622 4.93187Z" fill="#D11C95"/>
<path d="M104.622 4.93187C77.8127 1.74339 68.0521 21.9805 67.4013 23.2819C66.7506 21.9805 56.2742 2.13381 29.5951 6.23329C2.00493 10.4629 -1.44383 36.2961 1.35422 52.4988C5.64891 76.9655 53.4111 111.518 69.0281 121.93C69.0281 121.93 69.0281 121.93 69.0932 121.93C69.0932 121.93 69.0932 121.93 69.1583 121.93C84.3849 110.998 130.13 80.154 134.425 50.2213C136.702 33.9536 132.277 8.25049 104.622 4.93187Z" fill="#DD5390"/>
<path d="M104.622 4.93187C89.2001 3.10988 79.4395 9.03135 73.7783 14.6275L69.2884 121.865C84.5801 110.868 130.065 80.0889 134.359 50.1563C136.702 33.9536 132.277 8.2505 104.622 4.93187Z" fill="#C53059"/>
<path d="M105.012 54.1256C110.999 33.2378 115.684 5.973 102.735 1.93859C81.0012 -4.76373 68.0521 21.9154 67.4014 23.2168L69.0932 121.865C69.0932 121.865 69.0932 121.865 69.1583 121.865C84.5801 101.823 96.6833 83.2123 105.012 54.1256Z" fill="#DF6190"/>
<path d="M31.7424 54.1256C26.0812 33.2378 21.5913 5.973 33.8898 1.93859C54.5173 -4.76373 66.8157 21.9154 67.3363 23.2168L69.0281 121.865C54.4522 101.888 39.6811 83.2123 31.7424 54.1256Z" fill="#C53059"/>
<path d="M80.0251 174.897H59.4626C57.4454 174.897 55.7536 173.271 55.7536 171.188V149.585H82.693V172.23C82.693 173.726 81.5217 174.897 80.0251 174.897Z" fill="#C53059"/>
<path d="M69.2233 149.585H55.7536V166.698C55.7536 171.188 59.3976 174.832 63.8875 174.832H69.2233V149.585Z" fill="#DF6190"/>
<path d="M81.9121 151.667H56.4694V111.518H81.9121V151.667ZM57.3153 150.821H81.1313V112.364H57.3153V150.821Z" fill="#FAEFF1"/>
<path d="M74.1036 151.667C73.8433 151.667 73.7132 151.472 73.7132 151.277V111.974C73.7132 111.713 73.9084 111.583 74.1036 111.583C74.3639 111.583 74.494 111.779 74.494 111.974V151.212C74.5591 151.472 74.3639 151.667 74.1036 151.667Z" fill="#FAEFF1"/>
<path d="M63.8224 151.667C63.5621 151.667 63.4319 151.472 63.4319 151.277V111.974C63.4319 111.713 63.6272 111.583 63.8224 111.583C64.0827 111.583 64.2128 111.779 64.2128 111.974V151.212C64.2779 151.472 64.0827 151.667 63.8224 151.667Z" fill="#FAEFF1"/>
</g>
<defs>
<clipPath id="clip0_1_7502">
<rect width="134.372" height="174" fill="white" transform="translate(0.573364 0.897461)"/>
</clipPath>
</defs>
</svg>
