<svg width="1046" height="202" viewBox="0 0 1046 202" fill="none" xmlns="http://www.w3.org/2000/svg">
<g clip-path="url(#clip0_1_6634)">
<mask id="mask0_1_6634" style="mask-type:luminance" maskUnits="userSpaceOnUse" x="-275" y="113" width="1300" height="281">
<path d="M369.133 390.636C727.811 405.811 1021.17 356.739 1024.38 281.031C1027.58 205.322 739.41 131.647 380.733 116.471C22.0559 101.296 -271.306 150.368 -274.509 226.077C-277.712 301.785 10.4563 375.461 369.133 390.636Z" fill="white"/>
</mask>
<g mask="url(#mask0_1_6634)">
<path d="M1031.22 165.788L1029.74 200.953L-270.76 145.911L-255.528 15.498L1031.22 165.788Z" fill="#510F28"/>
</g>
<mask id="mask1_1_6634" style="mask-type:luminance" maskUnits="userSpaceOnUse" x="-275" y="113" width="1300" height="281">
<path d="M369.133 390.636C727.811 405.811 1021.17 356.739 1024.38 281.031C1027.58 205.322 739.41 131.647 380.733 116.471C22.0559 101.296 -271.306 150.368 -274.509 226.077C-277.712 301.785 10.4563 375.461 369.133 390.636Z" fill="white"/>
</mask>
<g mask="url(#mask1_1_6634)">
<path d="M1029.73 200.953L1029.63 203.559L-271.062 148.494L-270.76 145.911L1029.73 200.953Z" fill="#510F28"/>
</g>
<mask id="mask2_1_6634" style="mask-type:luminance" maskUnits="userSpaceOnUse" x="-275" y="113" width="1300" height="281">
<path d="M369.133 390.636C727.811 405.811 1021.17 356.739 1024.38 281.031C1027.58 205.322 739.41 131.647 380.733 116.471C22.0559 101.296 -271.306 150.368 -274.509 226.077C-277.712 301.785 10.4563 375.461 369.133 390.636Z" fill="white"/>
</mask>
<g mask="url(#mask2_1_6634)">
<path d="M1029.63 203.559L1029.52 206.264L-271.375 151.176L-271.062 148.494L1029.63 203.559Z" fill="#520F28"/>
</g>
<mask id="mask3_1_6634" style="mask-type:luminance" maskUnits="userSpaceOnUse" x="-275" y="113" width="1300" height="281">
<path d="M369.133 390.636C727.811 405.811 1021.17 356.739 1024.38 281.031C1027.58 205.322 739.41 131.647 380.733 116.471C22.0559 101.296 -271.306 150.368 -274.509 226.077C-277.712 301.785 10.4563 375.461 369.133 390.636Z" fill="white"/>
</mask>
<g mask="url(#mask3_1_6634)">
<path d="M1029.52 206.264L1029.41 208.869L-271.689 153.857L-271.375 151.176L1029.52 206.264Z" fill="#520F29"/>
</g>
<mask id="mask4_1_6634" style="mask-type:luminance" maskUnits="userSpaceOnUse" x="-275" y="113" width="1300" height="281">
<path d="M369.133 390.636C727.811 405.811 1021.17 356.739 1024.38 281.031C1027.58 205.322 739.41 131.647 380.733 116.471C22.0559 101.296 -271.306 150.368 -274.509 226.077C-277.712 301.785 10.4563 375.461 369.133 390.636Z" fill="white"/>
</mask>
<g mask="url(#mask4_1_6634)">
<path d="M1029.41 208.869L1029.31 211.475L-271.99 156.44L-271.689 153.857L1029.41 208.869Z" fill="#530F29"/>
</g>
<mask id="mask5_1_6634" style="mask-type:luminance" maskUnits="userSpaceOnUse" x="-275" y="113" width="1300" height="281">
<path d="M369.133 390.636C727.811 405.811 1021.17 356.739 1024.38 281.031C1027.58 205.322 739.41 131.647 380.733 116.471C22.0559 101.296 -271.306 150.368 -274.509 226.077C-277.712 301.785 10.4563 375.461 369.133 390.636Z" fill="white"/>
</mask>
<g mask="url(#mask5_1_6634)">
<path d="M1029.31 211.475L1029.2 214.18L-272.303 159.122L-271.99 156.44L1029.31 211.475Z" fill="#540F29"/>
</g>
<mask id="mask6_1_6634" style="mask-type:luminance" maskUnits="userSpaceOnUse" x="-275" y="113" width="1300" height="281">
<path d="M369.133 390.636C727.811 405.811 1021.17 356.739 1024.38 281.031C1027.58 205.322 739.41 131.647 380.733 116.471C22.0559 101.296 -271.306 150.368 -274.509 226.077C-277.712 301.785 10.4563 375.461 369.133 390.636Z" fill="white"/>
</mask>
<g mask="url(#mask6_1_6634)">
<path d="M1029.2 214.18L1029.09 216.786L-272.617 161.803L-272.303 159.122L1029.2 214.18Z" fill="#55102A"/>
</g>
<mask id="mask7_1_6634" style="mask-type:luminance" maskUnits="userSpaceOnUse" x="-275" y="113" width="1300" height="281">
<path d="M369.133 390.636C727.811 405.811 1021.17 356.739 1024.38 281.031C1027.58 205.322 739.41 131.647 380.733 116.471C22.0559 101.296 -271.306 150.368 -274.509 226.077C-277.712 301.785 10.4563 375.461 369.133 390.636Z" fill="white"/>
</mask>
<g mask="url(#mask7_1_6634)">
<path d="M1029.09 216.786L1028.98 219.491L-272.918 164.386L-272.617 161.803L1029.09 216.786Z" fill="#56102A"/>
</g>
<mask id="mask8_1_6634" style="mask-type:luminance" maskUnits="userSpaceOnUse" x="-275" y="113" width="1300" height="281">
<path d="M369.133 390.636C727.811 405.811 1021.17 356.739 1024.38 281.031C1027.58 205.322 739.41 131.647 380.733 116.471C22.0559 101.296 -271.306 150.368 -274.509 226.077C-277.712 301.785 10.4563 375.461 369.133 390.636Z" fill="white"/>
</mask>
<g mask="url(#mask8_1_6634)">
<path d="M1028.98 219.491L1028.88 222.096L-273.231 167.068L-272.918 164.386L1028.98 219.491Z" fill="#56102A"/>
</g>
<mask id="mask9_1_6634" style="mask-type:luminance" maskUnits="userSpaceOnUse" x="-275" y="113" width="1300" height="281">
<path d="M369.133 390.636C727.811 405.811 1021.17 356.739 1024.38 281.031C1027.58 205.322 739.41 131.647 380.733 116.471C22.0559 101.296 -271.306 150.368 -274.509 226.077C-277.712 301.785 10.4563 375.461 369.133 390.636Z" fill="white"/>
</mask>
<g mask="url(#mask9_1_6634)">
<path d="M1028.88 222.096L1028.76 224.801L-273.545 169.749L-273.231 167.068L1028.88 222.096Z" fill="#57102B"/>
</g>
<mask id="mask10_1_6634" style="mask-type:luminance" maskUnits="userSpaceOnUse" x="-275" y="113" width="1300" height="281">
<path d="M369.133 390.636C727.811 405.811 1021.17 356.739 1024.38 281.031C1027.58 205.322 739.41 131.647 380.733 116.471C22.0559 101.296 -271.306 150.368 -274.509 226.077C-277.712 301.785 10.4563 375.461 369.133 390.636Z" fill="white"/>
</mask>
<g mask="url(#mask10_1_6634)">
<path d="M1028.76 224.801L1028.66 227.407L-273.846 172.332L-273.545 169.749L1028.76 224.801Z" fill="#58102B"/>
</g>
<mask id="mask11_1_6634" style="mask-type:luminance" maskUnits="userSpaceOnUse" x="-275" y="113" width="1300" height="281">
<path d="M369.133 390.636C727.811 405.811 1021.17 356.739 1024.38 281.031C1027.58 205.322 739.41 131.647 380.733 116.471C22.0559 101.296 -271.306 150.368 -274.509 226.077C-277.712 301.785 10.4563 375.461 369.133 390.636Z" fill="white"/>
</mask>
<g mask="url(#mask11_1_6634)">
<path d="M1028.66 227.407L1028.54 230.112L-274.16 175.014L-273.846 172.332L1028.66 227.407Z" fill="#59102C"/>
</g>
<mask id="mask12_1_6634" style="mask-type:luminance" maskUnits="userSpaceOnUse" x="-275" y="113" width="1300" height="281">
<path d="M369.133 390.636C727.811 405.811 1021.17 356.739 1024.38 281.031C1027.58 205.322 739.41 131.647 380.733 116.471C22.0559 101.296 -271.306 150.368 -274.509 226.077C-277.712 301.785 10.4563 375.461 369.133 390.636Z" fill="white"/>
</mask>
<g mask="url(#mask12_1_6634)">
<path d="M1028.54 230.112L1028.44 232.717L-274.461 177.596L-274.426 177.298L-274.16 175.014L1028.54 230.112Z" fill="#5A102C"/>
</g>
<mask id="mask13_1_6634" style="mask-type:luminance" maskUnits="userSpaceOnUse" x="-272" y="114" width="1301" height="279">
<path d="M382.787 390.723C741.618 379.343 1030.56 308.717 1028.16 232.976C1025.76 157.235 732.919 105.061 374.089 116.441C15.258 127.821 -273.684 198.447 -271.282 274.188C-268.88 349.929 23.9568 402.103 382.787 390.723Z" fill="white"/>
</mask>
<g mask="url(#mask13_1_6634)">
<path d="M1028.4 232.727L-274.479 177.604L-274.593 180.302L1028.29 235.425L1028.4 232.727Z" fill="#5B112C"/>
</g>
<mask id="mask14_1_6634" style="mask-type:luminance" maskUnits="userSpaceOnUse" x="-272" y="114" width="1300" height="279">
<path d="M382.591 390.722C741.421 379.342 1030.36 308.716 1027.96 232.975C1025.56 157.234 732.723 105.06 373.892 116.44C15.0615 127.82 -273.881 198.446 -271.479 274.187C-269.077 349.928 23.7603 402.102 382.591 390.722Z" fill="white"/>
</mask>
<g mask="url(#mask14_1_6634)">
<path d="M1028.29 235.433L-274.59 180.309L-274.704 183.007L1028.18 238.13L1028.29 235.433Z" fill="#5C112D"/>
</g>
<mask id="mask15_1_6634" style="mask-type:luminance" maskUnits="userSpaceOnUse" x="-272" y="114" width="1300" height="279">
<path d="M382.394 390.721C741.225 379.341 1030.17 308.715 1027.77 232.974C1025.36 157.233 732.526 105.059 373.696 116.439C14.865 127.819 -274.077 198.445 -271.675 274.186C-269.273 349.926 23.5638 402.101 382.394 390.721Z" fill="white"/>
</mask>
<g mask="url(#mask15_1_6634)">
<path d="M1028.18 238.038L-274.697 182.914L-274.811 185.612L1028.07 240.735L1028.18 238.038Z" fill="#5D112D"/>
</g>
<mask id="mask16_1_6634" style="mask-type:luminance" maskUnits="userSpaceOnUse" x="-272" y="114" width="1300" height="279">
<path d="M382.198 390.72C741.028 379.339 1029.97 308.714 1027.57 232.973C1025.17 157.232 732.33 105.058 373.499 116.438C14.6685 127.818 -274.274 198.444 -271.872 274.185C-269.47 349.925 23.3673 402.1 382.198 390.72Z" fill="white"/>
</mask>
<g mask="url(#mask16_1_6634)">
<path d="M1028.07 240.743L-274.807 185.619L-274.922 188.317L1027.96 243.44L1028.07 240.743Z" fill="#5E112E"/>
</g>
<mask id="mask17_1_6634" style="mask-type:luminance" maskUnits="userSpaceOnUse" x="-273" y="114" width="1301" height="279">
<path d="M382.001 390.719C740.832 379.338 1029.77 308.713 1027.37 232.972C1024.97 157.231 732.133 105.057 373.302 116.437C14.472 127.817 -274.47 198.443 -272.068 274.184C-269.666 349.924 23.1708 402.099 382.001 390.719Z" fill="white"/>
</mask>
<g mask="url(#mask17_1_6634)">
<path d="M1027.97 243.348L-274.914 188.225L-275.028 190.922L1027.85 246.046L1027.97 243.348Z" fill="#5F112E"/>
</g>
<mask id="mask18_1_6634" style="mask-type:luminance" maskUnits="userSpaceOnUse" x="-273" y="114" width="1301" height="279">
<path d="M381.805 390.718C740.635 379.337 1029.58 308.712 1027.18 232.971C1024.77 157.23 731.937 105.056 373.106 116.436C14.2755 127.816 -274.667 198.442 -272.265 274.182C-269.863 349.923 22.9743 402.098 381.805 390.718Z" fill="white"/>
</mask>
<g mask="url(#mask18_1_6634)">
<path d="M1027.86 246.053L-275.025 190.93L-275.139 193.627L1027.74 248.751L1027.86 246.053Z" fill="#60112E"/>
</g>
<mask id="mask19_1_6634" style="mask-type:luminance" maskUnits="userSpaceOnUse" x="-273" y="114" width="1300" height="279">
<path d="M381.608 390.717C740.439 379.336 1029.38 308.711 1026.98 232.97C1024.58 157.229 731.74 105.055 372.909 116.435C14.079 127.815 -274.863 198.441 -272.461 274.181C-270.059 349.922 22.7778 402.097 381.608 390.717Z" fill="white"/>
</mask>
<g mask="url(#mask19_1_6634)">
<path d="M1027.75 248.658L-275.131 193.535L-275.245 196.233L1027.64 251.356L1027.75 248.658Z" fill="#61122F"/>
</g>
<mask id="mask20_1_6634" style="mask-type:luminance" maskUnits="userSpaceOnUse" x="-273" y="114" width="1300" height="279">
<path d="M381.412 390.716C740.242 379.335 1029.18 308.71 1026.78 232.969C1024.38 157.228 731.544 105.053 372.713 116.434C13.8825 127.814 -275.06 198.44 -272.658 274.18C-270.256 349.921 22.5813 402.096 381.412 390.716Z" fill="white"/>
</mask>
<g mask="url(#mask20_1_6634)">
<path d="M1027.64 251.363L-275.242 196.24L-275.356 198.938L1027.53 254.061L1027.64 251.363Z" fill="#62122F"/>
</g>
<mask id="mask21_1_6634" style="mask-type:luminance" maskUnits="userSpaceOnUse" x="-273" y="114" width="1300" height="279">
<path d="M381.215 390.715C740.046 379.334 1028.99 308.709 1026.59 232.968C1024.18 157.227 731.347 105.052 372.516 116.433C13.6859 127.813 -275.256 198.439 -272.854 274.179C-270.452 349.92 22.3847 402.095 381.215 390.715Z" fill="white"/>
</mask>
<g mask="url(#mask21_1_6634)">
<path d="M1027.53 253.969L-275.349 198.845L-275.463 201.543L1027.42 256.666L1027.53 253.969Z" fill="#631230"/>
</g>
<mask id="mask22_1_6634" style="mask-type:luminance" maskUnits="userSpaceOnUse" x="-274" y="114" width="1301" height="279">
<path d="M381.019 390.714C739.849 379.333 1028.79 308.708 1026.39 232.967C1023.99 157.226 731.151 105.051 372.32 116.432C13.4895 127.812 -275.453 198.438 -273.051 274.178C-270.649 349.919 22.1883 402.094 381.019 390.714Z" fill="white"/>
</mask>
<g mask="url(#mask22_1_6634)">
<path d="M1027.42 256.674L-275.46 201.55L-275.574 204.248L1027.31 259.371L1027.42 256.674Z" fill="#641230"/>
</g>
<mask id="mask23_1_6634" style="mask-type:luminance" maskUnits="userSpaceOnUse" x="-275" y="113" width="1300" height="281">
<path d="M369.133 390.636C727.811 405.811 1021.17 356.739 1024.38 281.031C1027.58 205.322 739.41 131.647 380.733 116.471C22.0559 101.296 -271.306 150.368 -274.509 226.077C-277.712 301.785 10.4563 375.461 369.133 390.636Z" fill="white"/>
</mask>
<g mask="url(#mask23_1_6634)">
<path d="M1024.43 327.392L1024.34 329.898L-278.563 274.776L-278.471 272.27L1024.43 327.392Z" fill="#80163C"/>
</g>
<mask id="mask24_1_6634" style="mask-type:luminance" maskUnits="userSpaceOnUse" x="-275" y="113" width="1300" height="281">
<path d="M369.133 390.636C727.811 405.811 1021.17 356.739 1024.38 281.031C1027.58 205.322 739.41 131.647 380.733 116.471C22.0559 101.296 -271.306 150.368 -274.509 226.077C-277.712 301.785 10.4563 375.461 369.133 390.636Z" fill="white"/>
</mask>
<g mask="url(#mask24_1_6634)">
<path d="M1024.06 332.282L-278.642 277.183L-278.563 274.776L1024.34 329.898L1024.06 332.282Z" fill="#81173C"/>
</g>
<mask id="mask25_1_6634" style="mask-type:luminance" maskUnits="userSpaceOnUse" x="-275" y="113" width="1300" height="281">
<path d="M369.133 390.636C727.811 405.811 1021.17 356.739 1024.38 281.031C1027.58 205.322 739.41 131.647 380.733 116.471C22.0559 101.296 -271.306 150.368 -274.509 226.077C-277.712 301.785 10.4563 375.461 369.133 390.636Z" fill="white"/>
</mask>
<g mask="url(#mask25_1_6634)">
<path d="M1023.77 334.765L-278.722 279.59L-278.642 277.183L1024.06 332.282L1023.77 334.765Z" fill="#82173D"/>
</g>
<mask id="mask26_1_6634" style="mask-type:luminance" maskUnits="userSpaceOnUse" x="-275" y="113" width="1300" height="281">
<path d="M369.133 390.636C727.811 405.811 1021.17 356.739 1024.38 281.031C1027.58 205.322 739.41 131.647 380.733 116.471C22.0559 101.296 -271.306 150.368 -274.509 226.077C-277.712 301.785 10.4563 375.461 369.133 390.636Z" fill="white"/>
</mask>
<g mask="url(#mask26_1_6634)">
<path d="M1023.49 337.149L-278.814 282.097L-278.722 279.59L1023.77 334.765L1023.49 337.149Z" fill="#82173D"/>
</g>
<mask id="mask27_1_6634" style="mask-type:luminance" maskUnits="userSpaceOnUse" x="-275" y="113" width="1300" height="281">
<path d="M369.133 390.636C727.811 405.811 1021.17 356.739 1024.38 281.031C1027.58 205.322 739.41 131.647 380.733 116.471C22.0559 101.296 -271.306 150.368 -274.509 226.077C-277.712 301.785 10.4563 375.461 369.133 390.636Z" fill="white"/>
</mask>
<g mask="url(#mask27_1_6634)">
<path d="M1023.21 339.532L-278.993 284.492L-278.814 282.097L1023.49 337.149L1023.21 339.532Z" fill="#83173D"/>
</g>
<mask id="mask28_1_6634" style="mask-type:luminance" maskUnits="userSpaceOnUse" x="-275" y="113" width="1300" height="281">
<path d="M369.133 390.636C727.811 405.811 1021.17 356.739 1024.38 281.031C1027.58 205.322 739.41 131.647 380.733 116.471C22.0559 101.296 -271.306 150.368 -274.509 226.077C-277.712 301.785 10.4563 375.461 369.133 390.636Z" fill="white"/>
</mask>
<g mask="url(#mask28_1_6634)">
<path d="M1022.92 342.015L-279.072 286.899L-278.993 284.492L1023.21 339.532L1022.92 342.015Z" fill="#84173E"/>
</g>
<mask id="mask29_1_6634" style="mask-type:luminance" maskUnits="userSpaceOnUse" x="-275" y="113" width="1300" height="281">
<path d="M369.133 390.636C727.811 405.811 1021.17 356.739 1024.38 281.031C1027.58 205.322 739.41 131.647 380.733 116.471C22.0559 101.296 -271.306 150.368 -274.509 226.077C-277.712 301.785 10.4563 375.461 369.133 390.636Z" fill="white"/>
</mask>
<g mask="url(#mask29_1_6634)">
<path d="M1022.65 344.399L-279.164 289.405L-279.072 286.899L1022.92 342.015L1022.65 344.399Z" fill="#85173E"/>
</g>
<mask id="mask30_1_6634" style="mask-type:luminance" maskUnits="userSpaceOnUse" x="-275" y="113" width="1300" height="281">
<path d="M369.133 390.636C727.811 405.811 1021.17 356.739 1024.38 281.031C1027.58 205.322 739.41 131.647 380.733 116.471C22.0559 101.296 -271.306 150.368 -274.509 226.077C-277.712 301.785 10.4563 375.461 369.133 390.636Z" fill="white"/>
</mask>
<g mask="url(#mask30_1_6634)">
<path d="M1022.36 346.882L-279.244 291.812L-279.164 289.405L1022.65 344.399L1022.36 346.882Z" fill="#86173E"/>
</g>
<mask id="mask31_1_6634" style="mask-type:luminance" maskUnits="userSpaceOnUse" x="-275" y="113" width="1300" height="281">
<path d="M369.133 390.636C727.811 405.811 1021.17 356.739 1024.38 281.031C1027.58 205.322 739.41 131.647 380.733 116.471C22.0559 101.296 -271.306 150.368 -274.509 226.077C-277.712 301.785 10.4563 375.461 369.133 390.636Z" fill="white"/>
</mask>
<g mask="url(#mask31_1_6634)">
<path d="M1022.08 349.266L-279.323 294.219L-279.244 291.812L1022.36 346.882L1022.08 349.266Z" fill="#87173F"/>
</g>
<mask id="mask32_1_6634" style="mask-type:luminance" maskUnits="userSpaceOnUse" x="-275" y="113" width="1300" height="281">
<path d="M369.133 390.636C727.811 405.811 1021.17 356.739 1024.38 281.031C1027.58 205.322 739.41 131.647 380.733 116.471C22.0559 101.296 -271.306 150.368 -274.509 226.077C-277.712 301.785 10.4563 375.461 369.133 390.636Z" fill="white"/>
</mask>
<g mask="url(#mask32_1_6634)">
<path d="M1021.79 351.749L-279.514 296.714L-279.323 294.219L1022.08 349.266L1021.79 351.749Z" fill="#88183F"/>
</g>
<mask id="mask33_1_6634" style="mask-type:luminance" maskUnits="userSpaceOnUse" x="-275" y="113" width="1300" height="281">
<path d="M369.133 390.636C727.811 405.811 1021.17 356.739 1024.38 281.031C1027.58 205.322 739.41 131.647 380.733 116.471C22.0559 101.296 -271.306 150.368 -274.509 226.077C-277.712 301.785 10.4563 375.461 369.133 390.636Z" fill="white"/>
</mask>
<g mask="url(#mask33_1_6634)">
<path d="M1021.51 354.133L-279.594 299.121L-279.514 296.714L1021.79 351.749L1021.51 354.133Z" fill="#891840"/>
</g>
<mask id="mask34_1_6634" style="mask-type:luminance" maskUnits="userSpaceOnUse" x="241" y="87" width="22" height="41">
<path d="M248.835 127.062C241.574 114.233 240.019 99.9565 243.147 87.8375C246.06 99.9573 253.57 109.795 262.32 115.045L248.835 127.062Z" fill="white"/>
</mask>
<g mask="url(#mask34_1_6634)">
<path d="M265.197 90.4129L241.458 87.6403L237.015 125.682L260.753 128.454L265.197 90.4129Z" fill="#510F28"/>
</g>
<mask id="mask35_1_6634" style="mask-type:luminance" maskUnits="userSpaceOnUse" x="226" y="88" width="21" height="40">
<path d="M239.786 127.818C235.239 125.374 232.256 121.602 230.553 118.081C228.751 114.548 227.854 111.02 227.331 107.737C226.385 101.183 226.321 94.8329 227.041 88.6747C229.394 94.3863 232.29 99.7586 235.776 104.394C237.431 106.601 239.419 108.545 241.29 109.77C243.16 110.995 244.936 111.304 246.098 110.835L239.786 127.818Z" fill="white"/>
</mask>
<g mask="url(#mask35_1_6634)">
<path d="M223 125.857L223.183 120.844L226.953 88.5638L248.308 91.058L243.957 128.305L223 125.857Z" fill="#510F28"/>
</g>
<mask id="mask36_1_6634" style="mask-type:luminance" maskUnits="userSpaceOnUse" x="133" y="91" width="21" height="40">
<path d="M140.327 130.296C133.066 117.467 131.512 103.19 134.639 91.0714C137.552 103.191 145.062 113.029 153.812 118.279L140.327 130.296Z" fill="white"/>
</mask>
<g mask="url(#mask36_1_6634)">
<path d="M156.689 93.6468L132.95 90.8742L128.507 128.916L152.246 131.688L156.689 93.6468Z" fill="#510F28"/>
</g>
<mask id="mask37_1_6634" style="mask-type:luminance" maskUnits="userSpaceOnUse" x="118" y="91" width="20" height="40">
<path d="M131.29 130.952C126.742 128.508 123.76 124.737 122.057 121.215C120.254 117.682 119.358 114.154 118.835 110.872C117.889 104.318 117.825 97.9674 118.544 91.8093C120.898 97.5208 123.794 102.893 127.28 107.529C128.935 109.736 130.923 111.679 132.793 112.905C134.664 114.13 136.44 114.438 137.602 113.97L131.29 130.952Z" fill="white"/>
</mask>
<g mask="url(#mask37_1_6634)">
<path d="M114.504 128.992L114.774 124.09L118.544 91.8093L139.8 94.2919L135.461 131.439L114.504 128.992Z" fill="#510F28"/>
</g>
<mask id="mask38_1_6634" style="mask-type:luminance" maskUnits="userSpaceOnUse" x="191" y="81" width="17" height="54">
<path d="M203.763 133.678C203.143 133.807 202.624 133.948 202.005 134.077C201.397 134.107 200.69 134.125 200.094 134.055C198.803 133.904 197.546 133.455 196.699 132.954C194.817 131.828 193.951 130.619 193.249 129.732C192.659 128.757 192.343 128.015 192.026 127.273C191.874 126.853 191.81 126.543 191.646 126.222L191.505 125.702C191.429 125.492 191.452 125.293 191.452 125.293L191.216 122.145C191.162 120.024 191.096 118.003 191.141 115.894C191.219 111.775 191.595 107.691 192.258 103.741C193.583 95.8417 195.867 88.3561 199.162 81.6934C198.789 89.2008 199.631 96.6487 201.26 103.383C202.069 106.8 203.2 110.053 204.441 113.219C205.061 114.801 205.793 116.296 206.524 117.791L207.683 119.94C198.776 122.927 205.171 120.754 203.18 121.428L203.279 121.439C203.279 121.439 203.379 121.451 203.279 121.439L202.958 121.603C202.637 121.767 202.094 122.106 201.761 122.37C201.317 122.72 201.072 123.095 200.95 123.282C200.816 123.568 200.915 123.58 200.839 123.369L203.763 133.678Z" fill="white"/>
</mask>
<g mask="url(#mask38_1_6634)">
<path d="M211.292 83.0094L210.827 93.0231L205.954 134.74L188.672 132.721L194.704 81.072L211.292 83.0094Z" fill="#510F28"/>
</g>
<mask id="mask39_1_6634" style="mask-type:luminance" maskUnits="userSpaceOnUse" x="500" y="99" width="23" height="40">
<path d="M513.612 138.355C521.699 126.01 524.065 111.788 521.671 99.5279C518.059 111.49 509.923 120.809 500.907 125.595L513.612 138.355Z" fill="white"/>
</mask>
<g mask="url(#mask39_1_6634)">
<path d="M525.434 100.068L504.178 97.5855L499.596 136.819L520.851 139.301L525.434 100.068Z" fill="#510F28"/>
</g>
<mask id="mask40_1_6634" style="mask-type:luminance" maskUnits="userSpaceOnUse" x="517" y="101" width="21" height="39">
<path d="M522.628 139.61C527.311 137.438 530.545 133.889 532.452 130.488C534.471 126.998 535.572 123.603 536.253 120.36C537.614 113.874 538.047 107.582 537.773 101.308C535.114 106.837 531.882 112.097 528.146 116.494C526.29 118.593 524.259 120.47 522.32 121.552C520.382 122.634 518.547 122.823 517.39 122.386L522.628 139.61Z" fill="white"/>
</mask>
<g mask="url(#mask40_1_6634)">
<path d="M539.064 101.459L520.093 99.243L515.476 138.774L534.447 140.99L539.064 101.459Z" fill="#510F28"/>
</g>
<mask id="mask41_1_6634" style="mask-type:luminance" maskUnits="userSpaceOnUse" x="608" y="109" width="23" height="40">
<path d="M621.693 148.26C629.78 135.915 632.145 121.694 629.752 109.433C626.14 121.395 618.003 130.714 608.987 135.5L621.693 148.26Z" fill="white"/>
</mask>
<g mask="url(#mask41_1_6634)">
<path d="M633.526 109.874L612.27 107.391L607.688 146.625L628.944 149.107L633.526 109.874Z" fill="#510F28"/>
</g>
<mask id="mask42_1_6634" style="mask-type:luminance" maskUnits="userSpaceOnUse" x="625" y="111" width="21" height="39">
<path d="M630.62 149.404C635.304 147.233 638.538 143.684 640.445 140.282C642.463 136.793 643.565 133.397 644.246 130.155C645.607 123.669 646.04 117.376 645.766 111.102C643.107 116.631 639.875 121.892 636.139 126.288C634.283 128.387 632.252 130.264 630.313 131.346C628.375 132.429 626.54 132.617 625.383 132.18L630.62 149.404Z" fill="white"/>
</mask>
<g mask="url(#mask42_1_6634)">
<path d="M647.157 111.265L628.186 109.049L623.568 148.58L642.539 150.796L647.157 111.265Z" fill="#510F28"/>
</g>
<mask id="mask43_1_6634" style="mask-type:luminance" maskUnits="userSpaceOnUse" x="555" y="96" width="17" height="53">
<path d="M558.131 147.683C558.715 147.852 559.299 148.021 559.884 148.19C560.48 148.259 561.175 148.34 561.782 148.311C563.097 148.263 564.347 147.905 565.31 147.414C567.237 146.431 568.171 145.332 568.883 144.408C569.595 143.484 569.986 142.725 570.266 142.053C570.412 141.667 570.546 141.38 570.691 140.995L570.849 140.51C570.872 140.311 570.994 140.124 570.994 140.124L571.366 136.946C571.609 134.86 571.754 132.762 571.886 130.764C572.064 126.657 571.944 122.515 571.502 118.537C570.718 110.593 568.796 102.918 565.974 96.044C565.899 103.586 564.643 110.89 562.551 117.592C561.45 120.988 560.273 124.172 558.809 127.223C558.126 128.754 557.257 130.163 556.487 131.583L555.239 133.653C563.987 137.191 557.641 134.638 559.569 135.366L559.47 135.355C559.371 135.343 559.47 135.355 559.47 135.355L559.756 135.489C560.043 135.623 560.504 135.979 560.966 136.335C561.329 136.679 561.58 137.112 561.656 137.322C561.733 137.532 561.622 137.62 561.756 137.333L558.131 147.683Z" fill="white"/>
</mask>
<g mask="url(#mask43_1_6634)">
<path d="M575.311 97.1345L574.846 107.148L569.916 149.361L553.527 147.447L559.617 95.3016L575.311 97.1345Z" fill="#510F28"/>
</g>
</g>
<defs>
<clipPath id="clip0_1_6634">
<rect width="1307.7" height="341.9" fill="white" transform="translate(-253.753 0.30127) rotate(6.66186)"/>
</clipPath>
</defs>
</svg>
