<svg width="290" height="60" viewBox="0 0 290 60" fill="none" xmlns="http://www.w3.org/2000/svg">
<mask id="mask0_1_51" style="mask-type:luminance" maskUnits="userSpaceOnUse" x="0" y="-24" width="99" height="84">
<path d="M-1.52588e-05 60.0001L98.7354 60.0001L98.7354 -23.9817L-1.52588e-05 -23.9817L-1.52588e-05 60.0001Z" fill="white"/>
</mask>
<g mask="url(#mask0_1_51)">
<path d="M44.4096 47.3618C43.1385 51.6289 40.0516 54.9882 36.2384 56.9856C35.3305 57.4396 34.4226 57.8481 33.4692 58.1659C31.4718 58.8014 29.3382 59.1192 27.2047 59.0284C26.4783 58.983 25.7066 58.9376 24.9803 58.8014C24.3901 58.7106 23.8 58.5745 23.1645 58.3929C21.3486 57.8935 19.669 57.0764 18.1709 55.9869C17.6262 55.6238 17.0814 55.1698 16.5821 54.7612C15.0386 53.3994 13.7676 51.7197 12.8597 49.8131C12.8143 49.7223 12.7689 49.5861 12.7235 49.4954C12.6781 49.4046 12.6327 49.3592 12.6327 49.2684C12.2241 48.3605 11.8156 47.3618 11.4978 46.3177C9.95434 41.3695 9.95435 35.1503 14.8117 29.0219C17.4446 25.7081 19.896 22.9843 22.1204 20.6692L22.1658 20.6238C23.2098 19.5343 24.2086 18.5356 25.1619 17.6277L25.298 17.4915C29.7468 13.1789 33.0153 10.6367 34.5587 8.45775C34.8765 8.04919 35.1035 7.64063 35.2851 7.23207C35.6482 6.41495 36.2384 6.09718 36.9193 6.23337C37.1463 6.27877 37.4187 6.36956 37.691 6.50575C38.5989 7.0051 39.5976 8.04919 40.5963 9.59264C41.0503 10.2736 41.5043 11.0907 41.9128 11.9986C43.1839 14.7223 44.228 18.3086 44.5458 22.3942C44.6819 23.9376 44.8635 25.6173 45.0451 27.3423C45.2267 29.1581 45.4083 31.0194 45.5445 32.926C45.8622 37.6471 45.8168 42.686 44.4096 47.3618Z" fill="url(#paint0_linear_1_51)"/>
<g opacity="0.5">
<g opacity="0.3">
<path d="M19.3966 49.5407L19.1242 50.494C18.6249 52.2191 18.0801 54.2165 18.1709 56.0323C17.6262 55.6691 17.0814 55.2152 16.5821 54.8066C16.6729 53.2632 17.036 51.7197 17.4446 50.1763C17.8532 48.7236 18.3525 47.3618 18.8065 46.1815C20.4861 41.5511 22.7105 37.1478 24.7533 32.699C28.3849 24.7548 31.8804 16.7651 34.5133 8.45775C34.8311 8.04919 35.0581 7.64063 35.2397 7.23207C35.6028 6.41495 36.193 6.09718 36.8739 6.23337C34.5587 13.9506 31.5172 21.4409 28.2488 28.8404C26.206 33.4253 23.9362 38.0103 21.9388 42.7314C20.9855 44.9558 20.0775 47.1802 19.3966 49.5407Z" fill="white"/>
</g>
<g opacity="0.3">
<path d="M36.8285 38.6459C35.6028 42.5499 34.2409 46.4539 32.5613 50.2217C31.9711 51.5382 31.3356 52.9001 30.6547 54.1711C29.7014 55.987 28.6119 57.712 27.1592 59.0285C26.4329 58.9831 25.6611 58.9377 24.9348 58.8015C27.3862 57.1672 28.9296 54.3073 30.1553 51.5382C30.5185 50.7665 30.8362 49.9947 31.154 49.2684C33.2876 44.3657 35.058 39.3268 36.4199 34.1971C38.3719 26.8884 38.962 19.3527 40.1877 11.9533C40.3239 11.1361 40.4601 10.3644 40.5963 9.5473C41.0502 10.2282 41.5042 11.0454 41.9128 11.9533C41.7312 13.2243 41.5496 14.45 41.4134 15.7211C41.141 17.7639 40.9141 19.8067 40.6417 21.8495C39.7792 27.5239 38.5535 33.153 36.8285 38.6459Z" fill="white"/>
</g>
<g opacity="0.3">
<path d="M36.2384 56.9857C35.3305 57.4396 34.4225 57.8482 33.4692 58.166C40.0516 49.3138 43.0477 38.2827 45.0451 27.2516C45.2267 29.0674 45.4083 30.9286 45.5445 32.8352C43.6832 41.415 40.9595 49.8132 36.2384 56.9857Z" fill="white"/>
</g>
<g opacity="0.3">
<path d="M17.4446 33.9247C15.8104 38.1011 14.4939 42.4591 13.2682 46.7717C13.0412 47.6342 12.8143 48.4513 12.5873 49.3138C12.1787 48.4059 11.7702 47.4072 11.4524 46.3631C12.4965 42.5499 13.9491 38.8275 15.1748 35.4228C17.036 30.3385 19.7144 25.5719 22.075 20.7146L22.1204 20.6692L25.1165 17.6731L25.2526 17.5369C22.8921 23.0298 19.669 28.2503 17.4446 33.9247Z" fill="white"/>
</g>
</g>
<path opacity="0.2" d="M44.4095 47.3617C43.1385 51.6289 40.0516 54.9882 36.2383 56.9856C35.3304 57.4395 34.4225 57.8481 33.4692 58.1659C31.4718 58.8014 29.3382 59.1192 27.2046 59.0284C26.4783 58.983 25.7066 58.9376 24.9802 58.8014C24.3901 58.7106 23.8 58.5744 23.1644 58.3929C21.3486 57.8935 19.669 57.0764 18.1709 55.9869C17.6262 55.6237 17.0814 55.1698 16.5821 54.7612C15.0386 53.3993 13.7675 51.7197 12.8596 49.8131C13.8129 49.7223 15.2656 49.7677 17.4446 50.1309C17.9439 50.2217 18.5341 50.3124 19.1242 50.4486C20.6223 50.7664 22.3927 51.2204 24.5263 51.8105C26.4783 52.4006 28.3849 52.2191 30.1553 51.5381C30.9724 51.2204 31.7442 50.7664 32.5159 50.2217C40.0516 44.7742 44.7273 28.9765 41.368 15.721C41.0503 14.4499 40.6417 13.1789 40.1424 11.9532C39.7792 10.9545 39.3252 10.0012 38.8259 9.04787C38.3265 8.09457 37.9634 7.23205 37.691 6.46033C38.5989 6.95968 39.5976 8.00378 40.5963 9.54723C41.0503 10.2282 41.5042 11.0453 41.9128 11.9532C43.1839 14.6769 44.228 18.2632 44.5457 22.3488C44.6819 23.8922 44.8635 25.5719 45.0451 27.2969C45.2267 29.1127 45.4082 30.9739 45.5444 32.8805C45.8622 37.6471 45.8168 42.686 44.4095 47.3617Z" fill="white"/>
<path d="M44.4096 47.3618C43.1385 51.6289 40.0516 54.9882 36.2384 56.9856C35.3305 57.4396 34.4226 57.8481 33.4692 58.1659C31.4718 58.8014 29.3382 59.1192 27.2047 59.0284C26.4783 58.983 25.7066 58.9376 24.9803 58.8014C24.3901 58.7106 23.8 58.5745 23.1645 58.3929C21.3486 57.8935 19.669 57.0764 18.1709 55.9869C17.6262 55.6238 17.0814 55.1698 16.5821 54.7612C15.0386 53.3994 13.7676 51.7197 12.8597 49.8131C12.8143 49.7223 12.7689 49.5861 12.7235 49.4954C12.6781 49.4046 12.6327 49.3592 12.6327 49.2684C12.2241 48.3605 11.8156 47.3618 11.4978 46.3177C9.95434 41.3695 9.95435 35.1503 14.8117 29.0219C17.4446 25.7081 19.896 22.9843 22.1204 20.6692L22.1658 20.6238C23.2098 19.5343 24.2086 18.5356 25.1619 17.6277L25.298 17.4915C29.7468 13.1789 33.0153 10.6367 34.5587 8.45775C34.8765 8.04919 35.1035 7.64063 35.2851 7.23207C35.6482 6.41495 36.2384 6.09718 36.9193 6.23337C37.1463 6.27877 37.4187 6.36956 37.691 6.50575C38.5989 7.0051 39.5976 8.04919 40.5963 9.59264C41.0503 10.2736 41.5043 11.0907 41.9128 11.9986C43.1839 14.7223 44.228 18.3086 44.5458 22.3942C44.6819 23.9376 44.8635 25.6173 45.0451 27.3423C45.2267 29.1581 45.4083 31.0194 45.5445 32.926C45.8622 37.6471 45.8168 42.686 44.4096 47.3618Z" fill="url(#paint1_linear_1_51)"/>
<g opacity="0.5">
<g opacity="0.3">
<path d="M19.3966 49.5407L19.1242 50.494C18.6249 52.2191 18.0801 54.2165 18.1709 56.0323C17.6262 55.6691 17.0814 55.2152 16.5821 54.8066C16.6729 53.2632 17.036 51.7197 17.4446 50.1763C17.8532 48.7236 18.3525 47.3618 18.8065 46.1815C20.4861 41.5511 22.7105 37.1478 24.7533 32.699C28.3849 24.7548 31.8804 16.7651 34.5133 8.45775C34.8311 8.04919 35.0581 7.64063 35.2397 7.23207C35.6028 6.41495 36.193 6.09718 36.8739 6.23337C34.5587 13.9506 31.5172 21.4409 28.2488 28.8404C26.206 33.4253 23.9362 38.0103 21.9388 42.7314C20.9855 44.9558 20.0775 47.1802 19.3966 49.5407Z" fill="white"/>
</g>
<g opacity="0.3">
<path d="M36.8285 38.6459C35.6028 42.5499 34.2409 46.4539 32.5613 50.2217C31.9711 51.5382 31.3356 52.9001 30.6547 54.1711C29.7014 55.987 28.6119 57.712 27.1592 59.0285C26.4329 58.9831 25.6611 58.9377 24.9348 58.8015C27.3862 57.1672 28.9296 54.3073 30.1553 51.5382C30.5185 50.7665 30.8362 49.9947 31.154 49.2684C33.2876 44.3657 35.058 39.3268 36.4199 34.1971C38.3719 26.8884 38.962 19.3527 40.1877 11.9533C40.3239 11.1361 40.4601 10.3644 40.5963 9.5473C41.0502 10.2282 41.5042 11.0454 41.9128 11.9533C41.7312 13.2243 41.5496 14.45 41.4134 15.7211C41.141 17.7639 40.9141 19.8067 40.6417 21.8495C39.7792 27.5239 38.5535 33.153 36.8285 38.6459Z" fill="white"/>
</g>
<g opacity="0.3">
<path d="M36.2384 56.9857C35.3305 57.4396 34.4225 57.8482 33.4692 58.166C40.0516 49.3138 43.0477 38.2827 45.0451 27.2516C45.2267 29.0674 45.4083 30.9286 45.5445 32.8352C43.6832 41.415 40.9595 49.8132 36.2384 56.9857Z" fill="white"/>
</g>
<g opacity="0.3">
<path d="M17.4446 33.9247C15.8104 38.1011 14.4939 42.4591 13.2682 46.7717C13.0412 47.6342 12.8143 48.4513 12.5873 49.3138C12.1787 48.4059 11.7702 47.4072 11.4524 46.3631C12.4965 42.5499 13.9491 38.8275 15.1748 35.4228C17.036 30.3385 19.7144 25.5719 22.075 20.7146L22.1204 20.6692L25.1165 17.6731L25.2526 17.5369C22.8921 23.0298 19.669 28.2503 17.4446 33.9247Z" fill="white"/>
</g>
</g>
<path opacity="0.2" d="M44.4095 47.3617C43.1385 51.6289 40.0516 54.9882 36.2383 56.9856C35.3304 57.4395 34.4225 57.8481 33.4692 58.1659C31.4718 58.8014 29.3382 59.1192 27.2046 59.0284C26.4783 58.983 25.7066 58.9376 24.9802 58.8014C24.3901 58.7106 23.8 58.5744 23.1644 58.3929C21.3486 57.8935 19.669 57.0764 18.1709 55.9869C17.6262 55.6237 17.0814 55.1698 16.5821 54.7612C15.0386 53.3993 13.7675 51.7197 12.8596 49.8131C13.8129 49.7223 15.2656 49.7677 17.4446 50.1309C17.9439 50.2217 18.5341 50.3124 19.1242 50.4486C20.6223 50.7664 22.3927 51.2204 24.5263 51.8105C26.4783 52.4006 28.3849 52.2191 30.1553 51.5381C30.9724 51.2204 31.7442 50.7664 32.5159 50.2217C40.0516 44.7742 44.7273 28.9765 41.368 15.721C41.0503 14.4499 40.6417 13.1789 40.1424 11.9532C39.7792 10.9545 39.3252 10.0012 38.8259 9.04787C38.3265 8.09457 37.9634 7.23205 37.691 6.46033C38.5989 6.95968 39.5976 8.00378 40.5963 9.54723C41.0503 10.2282 41.5042 11.0453 41.9128 11.9532C43.1839 14.6769 44.228 18.2632 44.5457 22.3488C44.6819 23.8922 44.8635 25.5719 45.0451 27.2969C45.2267 29.1127 45.4082 30.9739 45.5444 32.8805C45.8622 37.6471 45.8168 42.686 44.4095 47.3617Z" fill="white"/>
<path d="M80.3629 20.1697C83.4498 23.4382 84.8116 27.7508 84.63 32.0634C84.5846 33.0621 84.4485 34.0608 84.2669 35.0595C83.8129 37.1477 83.0412 39.0997 81.8609 40.9155C81.4524 41.551 81.0438 42.1412 80.5444 42.7313C80.1359 43.1853 79.7273 43.6392 79.2734 44.0932C77.9115 45.4097 76.368 46.4538 74.7338 47.2255C74.1437 47.4979 73.5081 47.7702 72.8726 47.9518C70.9206 48.5873 68.8324 48.8597 66.7442 48.7235C66.608 48.7235 66.5172 48.7235 66.381 48.6781C66.2902 48.6781 66.1994 48.6781 66.1541 48.6781C65.1553 48.5874 64.1113 48.4058 63.0218 48.1788C57.9375 46.9985 52.5808 43.957 49.7209 36.6483C48.1774 32.7443 47.0425 29.2488 46.1346 26.1619V26.0711C45.726 24.6185 45.3629 23.2566 45.0451 21.9855L44.9997 21.7586C43.5017 15.7664 42.9115 11.6808 41.822 9.2294C41.595 8.77544 41.3681 8.36688 41.0957 8.00371C40.551 7.27738 40.5963 6.59646 41.0503 6.05171C41.1865 5.87013 41.4135 5.68854 41.6858 5.55236C42.5484 5.00761 44.001 4.64444 45.8168 4.59905C46.634 4.55365 47.5873 4.59905 48.5406 4.68984C51.5367 4.96222 55.1683 5.87012 58.8454 7.59516C60.2526 8.27609 61.7507 8.95702 63.3849 9.63796C65.0192 10.3643 66.7442 11.136 68.4692 11.9985C72.691 13.9959 77.0036 16.5835 80.3629 20.1697Z" fill="url(#paint2_linear_1_51)"/>
<g opacity="0.5">
<g opacity="0.3">
<path d="M69.7403 42.8676L70.4212 43.5939C71.6469 44.865 73.0996 46.363 74.7338 47.2256C74.1437 47.4979 73.5081 47.7703 72.8726 47.9519C71.6015 47.1348 70.4213 46.0453 69.3318 44.9104C68.2877 43.8209 67.3344 42.686 66.5172 41.7327C63.3395 37.9649 60.6612 33.8339 57.8013 29.839C52.7624 22.7119 47.5419 15.721 41.6859 9.27486C41.4589 8.8209 41.2319 8.41234 40.9595 8.04918C40.4148 7.32285 40.4602 6.64191 40.9141 6.09717C46.4524 11.9532 51.4459 18.354 56.167 24.8909C59.1632 29.0219 62.0231 33.2891 65.0646 37.3747C66.5626 39.2359 68.0607 41.0971 69.7403 42.8676Z" fill="white"/>
</g>
<g opacity="0.3">
<path d="M69.0139 22.3489C71.7831 25.345 74.5068 28.5227 76.9128 31.8365C77.7753 33.0168 78.5924 34.2425 79.3641 35.4682C80.4536 37.1932 81.4069 39.009 81.8155 40.9157C81.4069 41.5512 80.9984 42.1413 80.499 42.7315C80.3174 39.7808 78.5924 37.0116 76.822 34.5603C76.3226 33.8793 75.8233 33.1984 75.3693 32.5629C72.1916 28.2957 68.6962 24.2555 64.9283 20.4423C59.5716 15.0856 53.3525 10.8184 47.5418 6.05186C46.9063 5.55251 46.2707 5.00776 45.6806 4.50841C46.4977 4.46301 47.451 4.50841 48.4043 4.5992C49.403 5.37092 50.4017 6.14265 51.4458 6.91438C53.0801 8.14006 54.7597 9.41113 56.3486 10.6822C60.8881 14.2231 65.1099 18.1271 69.0139 22.3489Z" fill="white"/>
</g>
<g opacity="0.3">
<path d="M84.63 32.018C84.5846 33.0167 84.4485 34.0154 84.2669 35.0142C79.9089 24.8909 71.8285 16.7651 63.2941 9.54724C64.9284 10.2736 66.6534 11.0453 68.3784 11.9078C74.87 17.8092 80.8168 24.3462 84.63 32.018Z" fill="white"/>
</g>
<g opacity="0.3">
<path d="M55.2591 36.7392C58.0737 40.2347 61.1606 43.5486 64.2929 46.7717C64.883 47.4072 65.5185 47.9973 66.1541 48.6329C65.1554 48.5421 64.1113 48.3605 63.0218 48.1335C60.2527 45.319 57.7105 42.2321 55.3953 39.463C51.8999 35.332 49.1307 30.6108 46.0892 26.1167V26.0259L44.9997 21.9403L44.9543 21.7133C48.5406 26.5706 51.4459 31.9727 55.2591 36.7392Z" fill="white"/>
</g>
</g>
<path opacity="0.2" d="M80.3629 20.1697C83.4498 23.4382 84.8116 27.7508 84.63 32.0634C84.5846 33.0621 84.4485 34.0608 84.2669 35.0595C83.8129 37.1477 83.0412 39.0997 81.8609 40.9155C81.4524 41.551 81.0438 42.1412 80.5444 42.7313C80.1359 43.1853 79.7273 43.6392 79.2734 44.0932C77.9115 45.4097 76.368 46.4538 74.7338 47.2255C74.1437 47.4979 73.5081 47.7702 72.8726 47.9518C70.9206 48.5873 68.8324 48.8597 66.7442 48.7235C67.1074 47.861 67.8791 46.6353 69.3317 44.9103C69.6495 44.5017 70.0127 44.0932 70.4212 43.6392C71.4653 42.5043 72.7364 41.1879 74.3253 39.6444C75.7779 38.2372 76.6404 36.5121 76.9128 34.6055C77.049 33.743 77.049 32.8351 76.9582 31.8818C76.0049 22.6211 64.656 10.6821 51.4913 6.95962C50.2202 6.59646 48.9037 6.32408 47.6327 6.1425C46.5886 5.96092 45.4991 5.87013 44.455 5.82473C43.4109 5.77934 42.4576 5.68854 41.6404 5.55236C42.503 5.00761 43.9556 4.64444 45.7714 4.59905C46.5886 4.55365 47.5419 4.59905 48.4952 4.68984C51.4913 4.96222 55.1229 5.87012 58.8 7.59516C60.2072 8.27609 61.7053 8.95702 63.3395 9.63796C64.9738 10.3643 66.6988 11.136 68.4238 11.9985C72.691 13.9959 77.0036 16.5835 80.3629 20.1697Z" fill="white"/>
<path d="M74.7792 -24.6356C79.1372 -25.6797 83.5859 -24.681 87.2176 -22.3658C88.0801 -21.821 88.8518 -21.2309 89.6235 -20.55C91.2124 -19.1427 92.5288 -17.4631 93.5276 -15.5564C93.8907 -14.9209 94.1631 -14.1946 94.4355 -13.5136C94.6624 -12.9235 94.844 -12.3334 94.9802 -11.7432C95.4342 -9.92739 95.5703 -8.06618 95.3888 -6.25035C95.3434 -5.56942 95.2526 -4.93388 95.071 -4.25295C94.6624 -2.25554 93.8453 -0.303537 92.665 1.42149C92.6196 1.51229 92.5288 1.60308 92.4835 1.73927C92.4381 1.78466 92.3927 1.87545 92.3473 1.92085C91.7571 2.73797 91.0762 3.55509 90.3499 4.37221C86.809 8.18543 81.4523 11.3177 73.7351 10.1374C69.5587 9.50191 65.9724 8.77558 62.8401 8.00385H62.7494C61.2967 7.64069 59.9348 7.27753 58.6638 6.91436L58.4368 6.86896C52.49 5.18933 48.6313 3.64588 45.9984 3.37351C45.499 3.32811 44.9997 3.32811 44.5911 3.37351C43.6832 3.4643 43.1385 3.14653 42.8661 2.46559C42.7753 2.23862 42.7299 1.96624 42.7299 1.64847C42.6845 0.604374 43.0931 -0.802885 43.9556 -2.39173C44.3188 -3.11806 44.8181 -3.93518 45.3629 -4.7523C47.0879 -7.24905 49.6754 -9.882 53.0347 -12.2426C54.3058 -13.1051 55.6676 -14.1038 57.0749 -15.1479C58.5276 -16.192 60.071 -17.3269 61.6599 -18.371C65.6547 -21.0493 70.0126 -23.5007 74.7792 -24.6356Z" fill="url(#paint3_linear_1_51)"/>
<g opacity="0.5">
<g opacity="0.3">
<path d="M89.1697 -4.07155L90.123 -4.29852C91.848 -4.70708 93.8908 -5.25183 95.3888 -6.20514C95.3435 -5.52421 95.2527 -4.88867 95.0711 -4.20773C93.7092 -3.5268 92.1658 -3.02745 90.6223 -2.66428C89.1697 -2.30112 87.717 -2.07414 86.4459 -1.84717C81.5886 -0.98465 76.6859 -0.712276 71.7832 -0.258321C63.1126 0.558799 54.442 1.5575 45.9077 3.37332C45.4083 3.32793 44.909 3.32793 44.5004 3.37332C43.5925 3.46412 43.0478 3.14635 42.7754 2.46541C50.6288 0.604195 58.6184 -0.530691 66.6535 -1.34781C71.7378 -1.89256 76.8675 -2.21033 81.9064 -2.80047C84.4031 -3.11824 86.8091 -3.4814 89.1697 -4.07155Z" fill="white"/>
</g>
<g opacity="0.3">
<path d="M76.595 5.41617C81.0438 4.73524 85.4472 3.69114 89.8052 2.60165C90.6677 2.37467 91.4848 2.14769 92.3473 1.92072C91.7572 2.73784 91.0762 3.55495 90.3499 4.37207C86.5367 5.37078 82.5873 6.00631 79.001 6.64185C73.6897 7.59516 68.1969 7.64055 62.7948 8.00372H62.704L58.6184 6.91423L58.3914 6.86883C64.4744 6.1879 70.6028 6.32408 76.595 5.41617Z" fill="white"/>
</g>
</g>
<path opacity="0.2" d="M74.7792 -24.6356C79.1372 -25.6797 83.586 -24.681 87.2176 -22.3658C88.0801 -21.821 88.8518 -21.2309 89.6236 -20.55C91.2124 -19.1427 92.5289 -17.4631 93.5276 -15.5564C93.8908 -14.9209 94.1631 -14.1946 94.4355 -13.5136C94.6625 -12.9235 94.8441 -12.3334 94.9802 -11.7432C95.4342 -9.92739 95.5704 -8.06617 95.3888 -6.25035C95.3434 -5.56942 95.2526 -4.93388 95.071 -4.25295C94.6625 -2.25554 93.8454 -0.303535 92.6651 1.4215C92.1203 0.649772 91.394 -0.6213 90.6223 -2.7095C90.4407 -3.20885 90.2591 -3.7082 90.0775 -4.29834C89.6236 -5.751 89.0788 -7.52143 88.5795 -9.65502C88.0801 -11.6524 87.036 -13.1959 85.4926 -14.4216C84.8116 -14.9663 84.0399 -15.4203 83.1774 -15.8288C74.6884 -19.642 58.6638 -15.7834 48.8583 -6.25035C47.905 -5.34244 46.9971 -4.34374 46.18 -3.29964C45.4991 -2.48252 44.9089 -1.57461 44.3188 -0.712094C43.774 0.195817 43.1839 0.967542 42.6846 1.55768C42.6392 0.513586 43.0477 -0.893674 43.9102 -2.48252C44.2734 -3.20885 44.7728 -4.02597 45.3175 -4.84309C47.0425 -7.33985 49.6301 -9.97279 52.9893 -12.3334C54.2604 -13.1959 55.6223 -14.1946 57.0296 -15.2387C58.4822 -16.2828 60.0257 -17.4177 61.6145 -18.4618C65.6547 -21.0493 70.0127 -23.5007 74.7792 -24.6356Z" fill="white"/>
<path d="M-2.75638 -14.9663C-5.84328 -18.2348 -7.20515 -22.5474 -7.02357 -26.86C-6.97817 -27.8587 -6.84198 -28.8574 -6.6604 -29.8561C-6.20644 -31.9443 -5.43472 -33.8963 -4.25444 -35.7121C-3.84588 -36.3476 -3.43732 -36.9378 -2.93796 -37.5279C-2.5294 -37.9819 -2.12084 -38.4358 -1.66689 -38.8898C-0.305022 -40.2062 1.23843 -41.2503 2.87267 -42.0221C3.46281 -42.2944 4.09835 -42.5668 4.73389 -42.7484C6.6859 -43.3839 8.77409 -43.6563 10.8623 -43.5201C10.9985 -43.5201 11.0893 -43.5201 11.2255 -43.4747C11.3162 -43.4747 11.407 -43.4747 11.4524 -43.4747C12.4511 -43.3839 13.4952 -43.2024 14.5847 -42.9754C19.669 -41.7951 25.0257 -38.7536 27.8856 -31.4449C29.4291 -27.5409 30.564 -24.0454 31.4719 -20.9585V-20.8677C31.8804 -19.4151 32.2436 -18.0532 32.5614 -16.7821L32.6068 -16.5552C34.1048 -10.5629 34.695 -6.47734 35.7845 -4.02598C36.0114 -3.57203 36.2384 -3.16347 36.5108 -2.8003C37.0555 -2.07397 37.0101 -1.39304 36.5562 -0.848295C36.42 -0.666712 36.193 -0.485127 35.9206 -0.348941C35.0581 0.195806 33.6055 0.558973 31.7896 0.604369C30.9725 0.649765 30.0192 0.604363 29.0659 0.513572C26.0698 0.241199 22.4382 -0.66671 18.7611 -2.39174C17.3539 -3.07267 15.8558 -3.75361 14.2216 -4.43454C12.5873 -5.16087 10.8623 -5.93259 9.13726 -6.79511C4.96087 -8.83791 0.602891 -11.3801 -2.75638 -14.9663Z" fill="url(#paint4_linear_1_51)"/>
<g opacity="0.5">
<g opacity="0.3">
<path d="M8.5925 -17.1454C5.82337 -20.1415 3.09964 -23.3192 0.693675 -26.6331C-0.16884 -27.8134 -0.98596 -29.039 -1.75768 -30.2647C-2.84718 -31.9898 -3.80049 -33.8056 -4.20905 -35.7122C-3.80049 -36.3477 -3.39192 -36.9379 -2.89257 -37.528C-2.71099 -34.5773 -0.98596 -31.8082 0.784467 -29.3568C1.28382 -28.6759 1.78317 -27.9949 2.23713 -27.3594C5.41481 -23.0922 8.91027 -19.052 12.6781 -15.2388C18.0348 -9.88212 24.254 -5.61494 30.0646 -0.848403C30.7001 -0.349052 31.3357 0.195699 31.9258 0.69505C31.1087 0.740446 30.1554 0.695052 29.2021 0.60426C28.2034 -0.167464 27.2047 -0.939191 26.1606 -1.71092C24.5263 -2.9366 22.8467 -4.20767 21.2579 -5.47875C16.7637 -9.0196 12.4965 -12.9236 8.5925 -17.1454Z" fill="white"/>
</g>
</g>
<path opacity="0.2" d="M-2.75638 -14.9663C-5.84328 -18.2348 -7.20515 -22.5474 -7.02357 -26.86C-6.97817 -27.8587 -6.84198 -28.8574 -6.6604 -29.8561C-6.20644 -31.9443 -5.43472 -33.8963 -4.25444 -35.7121C-3.84588 -36.3476 -3.43732 -36.9378 -2.93796 -37.5279C-2.5294 -37.9819 -2.12084 -38.4358 -1.66689 -38.8898C-0.305022 -40.2062 1.23843 -41.2503 2.87267 -42.0221C3.46281 -42.2944 4.09835 -42.5668 4.73389 -42.7484C6.6859 -43.3839 8.77409 -43.6563 10.8623 -43.5201C10.4991 -42.6576 9.7274 -41.4319 8.27474 -39.7069C7.95697 -39.2983 7.59381 -38.8898 7.18525 -38.4358C6.14115 -37.3009 4.87007 -35.9845 3.28123 -34.441C1.82857 -33.0337 0.966054 -31.3087 0.693681 -29.4021C0.557494 -28.5396 0.557495 -27.6317 0.648286 -26.6784C1.60159 -17.4177 12.9505 -5.47864 26.1152 -1.7562C27.3863 -1.39304 28.7027 -1.12067 29.9738 -0.939084C31.0179 -0.757502 32.1074 -0.666712 33.1515 -0.621317C34.1956 -0.575921 35.1489 -0.485127 35.966 -0.348941C35.1035 0.195806 33.6509 0.558973 31.835 0.604369C31.0179 0.649765 30.0646 0.604363 29.1113 0.513572C26.1152 0.241199 22.4836 -0.66671 18.8065 -2.39174C17.3992 -3.07267 15.9012 -3.75361 14.267 -4.43454C12.6327 -5.16087 10.9077 -5.93259 9.18265 -6.79511C4.96086 -8.83791 0.60289 -11.3801 -2.75638 -14.9663Z" fill="white"/>
<path d="M2.82718 29.839C-1.53079 30.8831 -5.97956 29.8844 -9.61121 27.5692C-10.4737 27.0245 -11.2454 26.4344 -12.0172 25.7534C-13.606 24.3462 -14.9225 22.6665 -15.9212 20.7599C-16.2844 20.1244 -16.5567 19.398 -16.8291 18.7171C-17.0561 18.127 -17.2377 17.5368 -17.3738 16.9467C-17.8278 15.1309 -17.964 13.2696 -17.7824 11.4538C-17.737 10.7729 -17.6462 10.1374 -17.4646 9.45642C-17.0561 7.45901 -16.239 5.50701 -15.0587 3.78197C-15.0133 3.69118 -14.9225 3.60039 -14.8771 3.4642C-14.8317 3.4188 -14.7863 3.32802 -14.7409 3.28262C-14.1508 2.4655 -13.4698 1.64838 -12.7435 0.831263C-9.20265 -2.98196 -3.84597 -6.11426 3.87128 -4.93398C8.04767 -4.29844 11.6339 -3.57211 14.7662 -2.80039H14.857C16.3097 -2.43722 17.6715 -2.07406 18.9426 -1.71089L19.1696 -1.6655C25.1164 0.0141393 28.975 1.55759 31.608 1.82996C32.1073 1.87536 32.6067 1.87536 33.0152 1.82996C33.9231 1.73917 34.4679 2.05694 34.7403 2.73788C34.8311 2.96485 34.8764 3.23723 34.8764 3.555C34.9218 4.59909 34.5133 6.00635 33.6508 7.5952C33.2876 8.32153 32.7883 9.13865 32.2435 9.91038C30.5185 12.4071 27.9309 15.0401 24.5717 17.4006C23.3006 18.2632 21.9387 19.2619 20.5314 20.306C19.0788 21.3501 17.5353 22.4849 15.9465 23.529C11.9971 26.2074 7.59371 28.7041 2.82718 29.839Z" fill="url(#paint5_linear_1_51)"/>
<g opacity="0.5">
<g opacity="0.3">
<path d="M-11.5177 9.27495L-12.4711 9.50192C-14.1961 9.91048 -16.2389 10.4552 -17.7369 11.4085C-17.6915 10.7276 -17.6008 10.0921 -17.4192 9.41113C-16.0573 8.7302 -14.5139 8.23085 -12.9704 7.86769C-11.5177 7.50452 -10.0651 7.27754 -8.79401 7.05057C-3.93669 6.18805 0.966035 5.91568 5.86876 5.46172C14.5393 4.6446 23.2099 3.6459 31.7442 1.83008C32.2436 1.87547 32.7429 1.87547 33.1515 1.83008C34.0594 1.73928 34.6042 2.05705 34.8765 2.73799C27.0231 4.5992 19.0335 5.73409 10.9985 6.55121C5.91415 7.09596 0.784453 7.41373 -4.25446 8.00387C-6.79661 8.32164 -9.20257 8.6848 -11.5177 9.27495Z" fill="white"/>
</g>
<g opacity="0.3">
<path d="M6.59502 18.8988C2.60021 19.8067 -1.48539 20.5785 -5.57099 20.987C-7.02364 21.1232 -8.4763 21.2594 -9.92896 21.3048C-11.9718 21.3956 -14.0146 21.3048 -15.8758 20.7147C-16.2389 20.0791 -16.5113 19.3528 -16.7837 18.6719C-14.1507 19.9883 -10.8823 19.8975 -7.88616 19.5798C-7.02364 19.489 -6.20652 19.3982 -5.4348 19.3074C-0.123519 18.7173 5.09697 17.7185 10.2721 16.3113C17.5808 14.4047 24.3901 11.1362 31.4264 8.45785C32.1981 8.18548 32.9245 7.86771 33.6962 7.59534C33.333 8.32167 32.8337 9.13879 32.2889 9.91051C31.1086 10.3645 29.9283 10.8638 28.7935 11.3632C26.8868 12.1803 24.9802 12.9974 23.0736 13.7237C17.7169 15.9027 12.2241 17.6278 6.59502 18.8988Z" fill="white"/>
</g>
<g opacity="0.3">
<path d="M-9.61112 27.5694C-10.4736 27.0247 -11.2454 26.4346 -12.0171 25.7536C-1.07676 27.0247 9.99976 24.074 20.5315 20.3062C19.0789 21.3503 17.5354 22.4851 15.9466 23.5292C7.5938 26.2076 -1.03136 28.0688 -9.61112 27.5694Z" fill="white"/>
</g>
<g opacity="0.3">
<path d="M1.01142 -0.257974C-3.43735 0.422959 -7.84072 1.46706 -12.1987 2.55655C-13.0612 2.78353 -13.8783 3.01051 -14.7408 3.23748C-14.1507 2.42036 -13.4698 1.60325 -12.7434 0.786125C-8.93021 -0.212577 -4.9808 -0.848115 -1.39455 -1.48365C3.91673 -2.43696 9.4096 -2.48236 14.8117 -2.84552H14.9025L18.9881 -1.75603L19.215 -1.71063C13.1774 -0.984302 7.04903 -1.16589 1.01142 -0.257974Z" fill="white"/>
</g>
</g>
<path opacity="0.2" d="M2.82718 29.8391C-1.5308 30.8832 -5.97956 29.8845 -9.61121 27.5693C-10.4737 27.0246 -11.2454 26.4344 -12.0172 25.7535C-13.606 24.3463 -14.9225 22.6666 -15.9212 20.76C-16.2844 20.1245 -16.5567 19.3981 -16.8291 18.7172C-17.0561 18.1271 -17.2377 17.5369 -17.3738 16.9468C-17.8278 15.131 -17.964 13.2697 -17.7824 11.4539C-17.737 10.773 -17.6462 10.1374 -17.4646 9.45651C-17.0561 7.4591 -16.239 5.50709 -15.0587 3.78206C-14.5139 4.55379 -13.7876 5.82486 -13.0159 7.91305C-12.8343 8.41241 -12.6527 8.91176 -12.4711 9.5019C-12.0172 10.9546 -11.4724 12.725 -10.9731 14.8586C-10.4737 16.856 -9.42962 18.3994 -7.88618 19.6251C-7.20524 20.1699 -6.43352 20.6238 -5.571 21.0324C2.91797 24.8456 18.9426 20.987 28.748 11.4539C29.7014 10.546 30.6093 9.5473 31.4264 8.5032C32.1073 7.68608 32.6975 6.77817 33.2876 5.91565C33.8323 5.00774 34.4225 4.23602 34.9218 3.64587C34.9672 4.68997 34.5587 6.09723 33.6962 7.68608C33.333 8.41241 32.8336 9.22953 32.2889 10.0013C30.5639 12.498 27.9763 15.131 24.617 17.4915C23.346 18.354 21.9841 19.3527 20.5768 20.3968C19.1242 21.4409 17.5807 22.5758 15.9919 23.6199C11.9971 26.2075 7.59371 28.7042 2.82718 29.8391Z" fill="white"/>
<path d="M38.4628 14.9038C44.3044 14.9038 49.04 10.1683 49.04 4.32668C49.04 -1.51493 44.3044 -6.25049 38.4628 -6.25049C32.6212 -6.25049 27.8856 -1.51493 27.8856 4.32668C27.8856 10.1683 32.6212 14.9038 38.4628 14.9038Z" fill="url(#paint6_linear_1_51)"/>
</g>
<mask id="mask1_1_51" style="mask-type:luminance" maskUnits="userSpaceOnUse" x="84" y="-24" width="97" height="60">
<path d="M84.2478 35.02L180.214 35.02V-23.9489L84.2478 -23.9489L84.2478 35.02Z" fill="white"/>
</mask>
<g mask="url(#mask1_1_51)">
<path d="M120.856 16.2661C121.673 3.41912 130.071 -12.197 130.071 -12.197L135.064 -11.9246C135.064 -11.9246 135.927 -9.7456 137.016 -6.38633C138.923 -0.43951 141.511 9.18435 141.147 17.401C140.966 21.6681 139.695 24.982 138.061 27.4788C134.747 32.6085 127.71 32.8354 124.033 28.5229C123.534 27.9781 123.125 27.3426 122.808 26.6616C121.491 23.9379 120.583 20.4879 120.856 16.2661Z" fill="url(#paint7_linear_1_51)"/>
<path opacity="0.2" d="M120.856 16.2661C121.673 3.41912 130.071 -12.197 130.071 -12.197L135.064 -11.9246C135.064 -11.9246 135.927 -9.7456 137.016 -6.38633C135.972 -6.25014 134.565 -6.06856 132.749 -5.79619C127.529 -5.02446 121.31 17.8095 124.033 28.5229C123.534 27.9781 123.125 27.3426 122.808 26.6616C121.491 23.9379 120.583 20.4879 120.856 16.2661Z" fill="#1D1D1B"/>
<path d="M150.136 13.6331C140.603 4.96256 133.612 -11.3344 133.612 -11.3344L136.926 -15.0569C136.926 -15.0569 139.15 -14.3759 142.464 -13.1503C148.275 -10.9713 157.445 -6.93108 163.618 -1.5744C166.841 1.19473 168.612 4.28163 169.565 7.14155C171.517 12.9068 167.295 18.5358 161.621 18.7628C160.895 18.8082 160.168 18.7174 159.397 18.5812C156.537 17.9003 153.268 16.493 150.136 13.6331Z" fill="url(#paint8_linear_1_51)"/>
<path opacity="0.2" d="M150.136 13.6331C140.603 4.96256 133.612 -11.3344 133.612 -11.3344L136.926 -15.0569C136.926 -15.0569 139.15 -14.3759 142.464 -13.1503C141.874 -12.2424 141.193 -11.0621 140.285 -9.47323C137.652 -4.88828 151.589 14.1779 161.712 18.7174C160.985 18.7628 160.259 18.672 159.487 18.5358C156.537 17.9003 153.268 16.493 150.136 13.6331Z" fill="#1D1D1B"/>
<path d="M100.518 -5.02444C111.096 -12.3785 128.528 -15.5562 128.528 -15.5562L131.433 -11.4706C131.433 -11.4706 130.298 -9.42781 128.346 -6.4771C124.896 -1.30201 118.949 6.73301 112.321 11.5903C108.871 14.0871 105.512 15.1766 102.516 15.449C96.4329 16.0845 91.8933 10.7278 92.9828 5.14417C93.119 4.41784 93.346 3.7369 93.6637 3.01057C94.9348 0.286836 97.023 -2.57308 100.518 -5.02444Z" fill="url(#paint9_linear_1_51)"/>
<path opacity="0.2" d="M100.519 -5.0245C111.096 -12.3786 128.528 -15.5563 128.528 -15.5563L131.433 -11.4707C131.433 -11.4707 130.298 -9.42787 128.346 -6.47716C127.574 -7.24889 126.576 -8.20219 125.259 -9.42787C121.4 -13.0141 99.7014 -3.66263 92.9828 5.14411C93.119 4.41778 93.346 3.73684 93.6638 3.01051C94.9349 0.286775 97.0231 -2.57314 100.519 -5.0245Z" fill="#1D1D1B"/>
</g>
<mask id="mask2_1_51" style="mask-type:luminance" maskUnits="userSpaceOnUse" x="183" y="-24" width="107" height="70">
<path d="M289.092 -24H183.229V45.9546H289.092V-24Z" fill="white"/>
</mask>
<g mask="url(#mask2_1_51)">
<path d="M184.455 -34.3503C183.91 -34.4864 183.411 -34.1687 183.275 -33.6239C183.138 -33.0792 183.456 -32.5798 184.001 -32.4436C191.037 -30.764 197.937 -28.5396 204.656 -25.8159C211.374 -23.1376 217.821 -19.8237 223.994 -16.0105C229.351 -12.6512 234.526 -8.88335 239.247 -4.66156C239.474 -3.43588 239.656 -2.11941 239.837 -0.848336C240.019 0.558926 240.11 1.9208 240.201 3.32806C240.291 4.73532 240.291 6.14258 240.246 7.50445C240.201 8.91171 240.064 10.2736 239.883 11.6354C239.838 11.9532 240.064 12.2256 240.382 12.271C240.7 12.3164 240.972 12.0894 241.018 11.817C241.245 10.4098 241.426 8.9571 241.517 7.54984C241.608 6.09718 241.608 4.68992 241.563 3.23726C241.517 1.78461 241.426 0.377346 241.29 -1.02992C241.245 -1.71085 241.154 -2.34639 241.063 -3.02732C241.109 -2.98193 241.154 -2.93653 241.199 -2.89113C243.832 -0.439773 246.329 2.19317 248.69 4.91691C249.87 6.27877 251.005 7.68603 252.049 9.13869C253.093 10.5913 254.137 12.0894 255.045 13.5875V13.6329C255.272 13.996 255.726 14.1322 256.089 13.9052C256.452 13.6782 256.588 13.2243 256.361 12.8611C255.408 11.2269 254.364 9.72883 253.275 8.23078C252.185 6.73272 251.05 5.32546 249.87 3.9182C247.509 1.10367 244.967 -1.57466 242.289 -4.07142C241.199 -5.11552 240.064 -6.15962 238.884 -7.11292C239.52 -7.06753 240.155 -6.97673 240.791 -6.93134C242.289 -6.74976 243.742 -6.56817 245.24 -6.3412C246.692 -6.11422 248.19 -5.84185 249.643 -5.52408C251.096 -5.20631 252.503 -4.79775 253.774 -4.16221L253.819 -4.11682C254.092 -3.98063 254.455 -4.07142 254.591 -4.38919C254.727 -4.66156 254.636 -5.02472 254.319 -5.16091C253.956 -5.34249 253.592 -5.52408 253.229 -5.66026C252.866 -5.79645 252.503 -5.93264 252.14 -6.06882L251.05 -6.43199L249.961 -6.74976C248.463 -7.11292 247.01 -7.43069 245.512 -7.70306C244.014 -7.97544 242.516 -8.20241 241.018 -8.384C239.611 -8.56558 238.249 -8.74716 236.841 -8.88335C233.028 -12.0156 229.033 -14.8302 224.902 -17.4631C218.683 -21.3671 212.146 -24.7264 205.337 -27.4955C198.573 -30.3101 191.582 -32.5798 184.455 -34.3503Z" fill="#4A012E"/>
<path d="M247.101 -7.11279C247.101 -7.11279 245.92 -2.80022 249.915 -0.167275C251.186 0.649845 252.911 1.28538 255.363 1.55776C255.998 1.64855 256.679 1.69394 257.315 1.78474C267.347 2.96502 279.559 4.2361 279.649 2.73804C279.695 2.23869 277.652 0.0143083 274.565 -2.52784C272.658 -4.07129 270.343 -5.70553 267.847 -7.15819C261.037 -10.9714 252.775 -13.1504 247.101 -7.11279Z" fill="url(#paint10_linear_1_51)"/>
<path opacity="0.2" d="M274.565 -2.52802C270.843 0.0595322 262.535 1.23982 257.36 1.78456C267.393 2.96485 279.604 4.23593 279.695 2.73787C279.695 2.28392 277.697 0.0141366 274.565 -2.52802Z" fill="white"/>
<path d="M232.574 -11.1531C232.574 -11.1531 229.17 -13.1959 226.037 -10.4268C225.039 -9.56424 224.085 -8.24777 223.268 -6.20497C223.041 -5.66022 222.814 -5.16087 222.587 -4.61612C219.228 3.60047 215.188 13.5875 216.413 14.0415C216.822 14.1776 219.183 13.0428 222.088 11C223.858 9.77427 225.81 8.18542 227.581 6.415C232.483 1.55767 236.342 -4.93389 232.574 -11.1531Z" fill="url(#paint11_linear_1_51)"/>
<path opacity="0.2" d="M232.574 -11.153C232.574 -11.153 229.17 -13.1958 226.037 -10.4266C231.757 -6.29564 229.987 1.10384 227.626 6.36973C232.483 1.5578 236.342 -4.93377 232.574 -11.153Z" fill="#1D1D1B"/>
<path opacity="0.2" d="M222.133 10.9999C220.862 7.23211 221.815 -0.0765787 222.633 -4.57074C219.273 3.64586 215.233 13.6329 216.459 14.0868C216.822 14.1776 219.228 12.9973 222.133 10.9999Z" fill="white"/>
<path d="M211.284 -23.6824C211.284 -23.6824 207.47 -24.7265 205.201 -21.1856C204.474 -20.0961 203.93 -18.5527 203.657 -16.3737C203.612 -15.8289 203.521 -15.2388 203.476 -14.6486C202.477 -5.84191 201.297 4.91684 202.613 4.96224C203.022 4.96224 205.019 3.23721 207.243 0.468079C208.605 -1.21156 210.058 -3.25436 211.284 -5.43334C214.688 -11.4256 216.595 -18.6889 211.284 -23.6824Z" fill="url(#paint12_linear_1_51)"/>
<path opacity="0.2" d="M207.243 0.468227C204.974 -2.80025 203.93 -10.1089 203.476 -14.6485C202.477 -5.84176 201.297 4.91699 202.613 4.96239C203.067 4.96239 205.019 3.19196 207.243 0.468227Z" fill="white"/>
<path d="M253.955 8.59391C253.955 8.59391 250.324 11.363 251.958 15.9026C252.457 17.3099 253.456 18.9441 255.272 20.6691C255.726 21.1231 256.225 21.577 256.679 22.0764C263.988 29.2035 272.976 37.7833 273.975 36.603C274.293 36.2398 274.066 33.1983 273.158 29.2489C272.568 26.8429 271.751 24.0738 270.616 21.3955C267.529 14.0868 262.217 7.23205 253.955 8.59391Z" fill="url(#paint13_linear_1_51)"/>
<path opacity="0.2" d="M253.955 8.59391C253.955 8.59391 250.324 11.363 251.958 15.9026C258.813 11.5446 265.94 16.5835 270.616 21.3955C267.529 14.0868 262.217 7.23205 253.955 8.59391Z" fill="#1D1D1B"/>
<path opacity="0.2" d="M273.158 29.2036C268.618 28.9766 261.173 24.8456 256.679 22.0311C263.988 29.1582 272.976 37.7379 273.975 36.5576C274.293 36.1945 274.066 33.153 273.158 29.2036Z" fill="white"/>
<path d="M242.38 9.22938C242.38 9.22938 238.112 7.09578 234.617 10.7274C233.527 11.8623 232.483 13.542 231.666 16.0387C231.439 16.6743 231.258 17.3552 231.031 18.0361C227.717 28.2047 223.813 40.5977 225.356 41.0063C225.856 41.1425 228.625 39.5082 231.893 36.8299C233.891 35.1956 236.07 33.1074 238.067 30.7923C243.515 24.5277 247.464 16.4019 242.38 9.22938Z" fill="url(#paint14_linear_1_51)"/>
<path opacity="0.2" d="M242.38 9.22956C242.38 9.22956 238.112 7.09596 234.617 10.7276C241.88 15.131 240.428 24.1647 238.067 30.7471C243.515 24.5279 247.464 16.4021 242.38 9.22956Z" fill="#1D1D1B"/>
<path opacity="0.2" d="M231.893 36.7846C229.987 32.4267 230.486 23.5291 231.031 18.0363C227.717 28.2049 223.813 40.5979 225.356 41.0064C225.856 41.0972 228.625 39.5084 231.893 36.7846Z" fill="white"/>
</g>
<defs>
<linearGradient id="paint0_linear_1_51" x1="17.8219" y1="69.2001" x2="39.6678" y2="8.78937" gradientUnits="userSpaceOnUse">
<stop offset="0.2345" stop-color="#AD307B"/>
<stop offset="1" stop-color="#47022E"/>
</linearGradient>
<linearGradient id="paint1_linear_1_51" x1="17.8219" y1="69.2001" x2="39.6678" y2="8.78937" gradientUnits="userSpaceOnUse">
<stop offset="0.2345" stop-color="#AD307B"/>
<stop offset="1" stop-color="#47022E"/>
</linearGradient>
<linearGradient id="paint2_linear_1_51" x1="85.9991" y1="54.0751" x2="44.6053" y2="4.95017" gradientUnits="userSpaceOnUse">
<stop offset="0.2345" stop-color="#AD307B"/>
<stop offset="1" stop-color="#47022E"/>
</linearGradient>
<linearGradient id="paint3_linear_1_51" x1="106.989" y1="-12.5303" x2="43.749" y2="-1.24563" gradientUnits="userSpaceOnUse">
<stop offset="0.2345" stop-color="#AD307B"/>
<stop offset="1" stop-color="#47022E"/>
</linearGradient>
<linearGradient id="paint4_linear_1_51" x1="-8.37546" y1="-48.8868" x2="33.0183" y2="0.238031" gradientUnits="userSpaceOnUse">
<stop offset="0.2345" stop-color="#AD307B"/>
<stop offset="1" stop-color="#47022E"/>
</linearGradient>
<linearGradient id="paint5_linear_1_51" x1="-29.3658" y1="17.7185" x2="33.8746" y2="6.43387" gradientUnits="userSpaceOnUse">
<stop offset="0.2345" stop-color="#AD307B"/>
<stop offset="1" stop-color="#47022E"/>
</linearGradient>
<linearGradient id="paint6_linear_1_51" x1="2.66214" y1="17.6416" x2="57.086" y2="-2.60689" gradientUnits="userSpaceOnUse">
<stop offset="0.3881" stop-color="#D9609F"/>
<stop offset="0.4948" stop-color="#C55390"/>
<stop offset="0.7127" stop-color="#933368"/>
<stop offset="1" stop-color="#47022E"/>
</linearGradient>
<linearGradient id="paint7_linear_1_51" x1="129.1" y1="57.3253" x2="132.645" y2="-18.0722" gradientUnits="userSpaceOnUse">
<stop offset="0.3132" stop-color="#E5458E"/>
<stop offset="1" stop-color="#A9025A"/>
</linearGradient>
<linearGradient id="paint8_linear_1_51" x1="187.395" y1="32.7763" x2="130.66" y2="-17.0081" gradientUnits="userSpaceOnUse">
<stop offset="0.3132" stop-color="#E5458E"/>
<stop offset="1" stop-color="#A9025A"/>
</linearGradient>
<linearGradient id="paint9_linear_1_51" x1="84.2906" y1="19.2594" x2="128.103" y2="-12.369" gradientUnits="userSpaceOnUse">
<stop offset="0.3132" stop-color="#E5458E"/>
<stop offset="1" stop-color="#A9025A"/>
</linearGradient>
<linearGradient id="paint10_linear_1_51" x1="283.979" y1="0.662837" x2="248.027" y2="-6.25373" gradientUnits="userSpaceOnUse">
<stop offset="0.3797" stop-color="#6A1344"/>
<stop offset="1" stop-color="#4A012E"/>
</linearGradient>
<linearGradient id="paint11_linear_1_51" x1="217.168" y1="18.1795" x2="231.606" y2="-10.5632" gradientUnits="userSpaceOnUse">
<stop offset="0.3797" stop-color="#6A1344"/>
<stop offset="1" stop-color="#4A012E"/>
</linearGradient>
<linearGradient id="paint12_linear_1_51" x1="204.46" y1="8.7357" x2="210.521" y2="-22.8535" gradientUnits="userSpaceOnUse">
<stop offset="0.3797" stop-color="#6A1344"/>
<stop offset="1" stop-color="#4A012E"/>
</linearGradient>
<linearGradient id="paint13_linear_1_51" x1="278.729" y1="37.558" x2="254.17" y2="9.85401" gradientUnits="userSpaceOnUse">
<stop offset="0.3797" stop-color="#6A1344"/>
<stop offset="1" stop-color="#4A012E"/>
</linearGradient>
<linearGradient id="paint14_linear_1_51" x1="226.621" y1="45.8906" x2="241.292" y2="10.0386" gradientUnits="userSpaceOnUse">
<stop offset="0.3797" stop-color="#6A1344"/>
<stop offset="1" stop-color="#4A012E"/>
</linearGradient>
</defs>
</svg>
