<svg width="139" height="147" viewBox="0 0 139 147" fill="none" xmlns="http://www.w3.org/2000/svg">
<mask id="mask0_1_16" style="mask-type:luminance" maskUnits="userSpaceOnUse" x="0" y="-45" width="139" height="192">
<path d="M139 -44.5026H0.800049V146.897H139V-44.5026Z" fill="white"/>
</mask>
<g mask="url(#mask0_1_16)">
<path d="M210.5 -22.3026C211.7 -22.6026 212.8 -21.9026 213.1 -20.7026C213.4 -19.5026 212.7 -18.4026 211.5 -18.1026C196.1 -14.4026 180.8 -9.50257 166.1 -3.50257C151.3 2.39743 137.1 9.69743 123.5 18.0974C111.7 25.4974 100.3 33.7974 89.9001 43.0974C89.4001 45.7974 89.0001 48.6974 88.6001 51.4974C88.2001 54.5974 88.0001 57.5974 87.8001 60.6974C87.6001 63.7974 87.6001 66.8974 87.7001 69.8974C87.8001 72.9974 88.1001 75.9974 88.5001 78.9974C88.6001 79.6974 88.1001 80.2974 87.4001 80.3974C86.7001 80.4974 86.1001 79.9974 86.0001 79.3974C85.5001 76.2974 85.1001 73.0974 84.9001 69.9974C84.7001 66.7974 84.7001 63.6974 84.8001 60.4974C84.9001 57.2974 85.1001 54.1974 85.4001 51.0974C85.5001 49.5974 85.7001 48.1974 85.9001 46.6974C85.8001 46.7974 85.7001 46.8974 85.6001 46.9974C79.8001 52.3974 74.3001 58.1974 69.1001 64.1974C66.5001 67.1974 64.0001 70.2974 61.7001 73.4974C59.4001 76.6974 57.1001 79.9974 55.1001 83.2974V83.3974C54.6001 84.1974 53.6001 84.4974 52.8001 83.9974C52.0001 83.4974 51.7001 82.4974 52.2001 81.6974C54.3001 78.0974 56.6001 74.7974 59.0001 71.4974C61.4001 68.1974 63.9001 65.0974 66.5001 61.9974C71.7001 55.7974 77.3001 49.8974 83.2001 44.3974C85.6001 42.0974 88.1001 39.7974 90.7001 37.6974C89.3001 37.7974 87.9001 37.9974 86.5001 38.0974C83.2001 38.4974 80.0001 38.8974 76.7001 39.3974C73.5001 39.8974 70.2001 40.4974 67.0001 41.1974C63.8001 41.8974 60.7001 42.7974 57.9001 44.1974H57.8001C57.2001 44.4974 56.4001 44.2974 56.1001 43.5974C55.8001 42.9974 56.0001 42.1974 56.7001 41.8974C57.5001 41.4974 58.3001 41.0974 59.1001 40.7974C59.9001 40.4974 60.7001 40.1974 61.5001 39.8974L63.9001 39.0974L66.3001 38.3974C69.6001 37.5974 72.8001 36.8974 76.1001 36.2974C79.4001 35.6974 82.7001 35.1974 86.0001 34.7974C89.1001 34.3974 92.1001 33.9974 95.2001 33.6974C103.6 26.7974 112.4 20.5974 121.5 14.7974C135.2 6.19743 149.6 -1.20257 164.6 -7.30257C179.5 -13.5026 194.9 -18.5026 210.5 -22.3026Z" fill="#4A012E"/>
<path d="M72.6001 37.5974C72.6001 37.5974 75.2001 47.0974 66.4001 52.8974C63.6001 54.6974 59.8001 56.0974 54.4001 56.6974C53.0001 56.8974 51.5001 56.9974 50.1001 57.1974C28.0001 59.7974 1.10007 62.5974 0.900071 59.2974C0.800071 58.1974 5.30007 53.2974 12.1001 47.6974C16.3001 44.2974 21.4001 40.6974 26.9001 37.4974C41.8001 29.0974 60.1001 24.2974 72.6001 37.5974Z" fill="url(#paint0_linear_1_16)"/>
<path opacity="0.2" d="M72.6001 37.5974C72.6001 37.5974 75.2001 47.0974 66.4001 52.8974C60.4001 36.2974 41.3001 35.4974 26.9001 37.5974C41.8001 29.0974 60.1001 24.2974 72.6001 37.5974Z" fill="#1D1D1B"/>
<path opacity="0.2" d="M12.0001 47.7974C20.2001 53.4974 38.5001 56.0974 49.9001 57.2974C27.8001 59.8974 0.900073 62.6974 0.700073 59.3974C0.700073 58.2974 5.20007 53.3974 12.0001 47.7974Z" fill="white"/>
<path d="M121.5 15.9974C121.5 15.9974 118.8 24.2974 109.6 24.1974C106.7 24.1974 103.2 23.3974 98.9001 21.1974C97.8001 20.5974 96.6 20.0974 95.5 19.4974C78 10.6974 56.8001 -0.202551 58.3001 -2.70255C58.8001 -3.50255 64.4001 -5.00255 72.2001 -5.80255C76.9001 -6.30255 82.4 -6.50255 88 -6.10255C103 -5.10255 118.7 0.19745 121.5 15.9974Z" fill="url(#paint1_linear_1_16)"/>
<path opacity="0.2" d="M121.5 15.9975C121.5 15.9975 118.8 24.2975 109.6 24.1975C113.2 9.09746 99.6001 -0.702539 88.0001 -6.10254C103 -5.10254 118.7 0.197459 121.5 15.9975Z" fill="#1D1D1B"/>
<path opacity="0.2" d="M72.1001 -5.80255C75.4001 2.29745 87.5001 13.0974 95.4001 19.4974C78.0001 10.6974 56.8001 -0.202553 58.3001 -2.70255C58.8001 -3.50255 64.4001 -5.00255 72.1001 -5.80255Z" fill="white"/>
<path d="M149 2.19744C149 2.19744 143.9 9.29744 135.2 6.39744C132.4 5.49744 129.3 3.69744 125.9 0.29744C125 -0.60256 124.1 -1.50256 123.2 -2.40256C109.2 -16.0026 92.3 -32.8026 94.5 -34.7026C95.2 -35.3026 101 -35.1026 108.7 -33.5026C113.3 -32.5026 118.7 -31.1026 123.9 -29.0026C137.7 -23.4026 151.1 -13.7026 149 2.19744Z" fill="url(#paint2_linear_1_16)"/>
<path opacity="0.2" d="M149 2.19744C149 2.19744 143.9 9.29744 135.2 6.39744C143.2 -6.90256 133.1 -20.3026 123.7 -29.0026C137.7 -23.4026 151.1 -13.7026 149 2.19744Z" fill="#1D1D1B"/>
<path d="M104.5 28.7974C104.5 28.7974 112 24.2974 118.9 30.3974C121.1 32.2974 123.2 35.1974 125 39.6974C125.5 40.8974 126 41.9974 126.5 43.1974C133.9 61.2974 142.8 83.2974 140.1 84.2974C139.2 84.5974 134 82.0974 127.6 77.5974C123.7 74.8974 119.4 71.3974 115.5 67.4974C104.7 56.7974 96.3001 42.4974 104.5 28.7974Z" fill="url(#paint3_linear_1_16)"/>
<path opacity="0.2" d="M104.5 28.7974C104.5 28.7974 112 24.2974 118.9 30.3974C106.3 39.4974 110.2 55.7974 115.4 67.3974C104.7 56.7974 96.3001 42.4974 104.5 28.7974Z" fill="#1D1D1B"/>
<path opacity="0.2" d="M127.6 77.4975C130.4 69.1975 128.3 53.0974 126.5 43.1974C133.9 61.2974 142.8 83.2975 140.1 84.2975C139.2 84.5975 133.9 81.9975 127.6 77.4975Z" fill="white"/>
<path d="M57.4001 72.1974C57.4001 72.1974 65.4001 78.2974 61.8001 88.2974C60.7001 91.3974 58.5001 94.9974 54.5001 98.7974C53.5001 99.7974 52.4001 100.797 51.4001 101.897C35.3001 117.597 15.5001 136.497 13.3001 133.897C12.6001 133.097 13.1001 126.397 15.1001 117.697C16.4001 112.397 18.2001 106.297 20.7001 100.397C27.6001 84.2974 39.2001 69.1974 57.4001 72.1974Z" fill="url(#paint4_linear_1_16)"/>
<path opacity="0.2" d="M57.4001 72.1974C57.4001 72.1974 65.4001 78.2974 61.8001 88.2974C46.7001 78.6974 31.0001 89.7974 20.7001 100.397C27.6001 84.2974 39.2001 69.1974 57.4001 72.1974Z" fill="#1D1D1B"/>
<path opacity="0.2" d="M15.2001 117.697C25.2001 117.197 41.6001 108.097 51.5001 101.897C35.4001 117.597 15.6001 136.497 13.4001 133.897C12.6001 133.097 13.1001 126.397 15.2001 117.697Z" fill="white"/>
<path d="M82.9001 73.6974C82.9001 73.6974 92.3001 68.9974 100 76.9974C102.4 79.4974 104.7 83.1974 106.5 88.6974C107 90.0974 107.4 91.5974 107.9 93.0974C115.2 115.497 123.8 142.797 120.4 143.697C119.3 143.997 113.2 140.397 106 134.497C101.6 130.897 96.8001 126.297 92.4001 121.197C80.5001 107.397 71.7001 89.3974 82.9001 73.6974Z" fill="url(#paint5_linear_1_16)"/>
<path opacity="0.2" d="M82.9001 73.6974C82.9001 73.6974 92.3001 68.9974 100 76.9974C84.0001 86.6974 87.2001 106.597 92.4001 121.097C80.5001 107.397 71.7001 89.3974 82.9001 73.6974Z" fill="#1D1D1B"/>
<path opacity="0.2" d="M106 134.397C110.2 124.797 109.1 105.197 107.9 93.0974C115.2 115.497 123.8 142.797 120.4 143.697C119.3 143.897 113.3 140.297 106 134.397Z" fill="white"/>
</g>
<defs>
<linearGradient id="paint0_linear_1_16" x1="-8.70128" y1="54.7952" x2="70.4969" y2="39.5591" gradientUnits="userSpaceOnUse">
<stop offset="0.3797" stop-color="#6A1344"/>
<stop offset="1" stop-color="#4A012E"/>
</linearGradient>
<linearGradient id="paint1_linear_1_16" x1="53.526" y1="-10.6695" x2="119.01" y2="16.3921" gradientUnits="userSpaceOnUse">
<stop offset="0.3797" stop-color="#6A1344"/>
<stop offset="1" stop-color="#4A012E"/>
</linearGradient>
<linearGradient id="paint2_linear_1_16" x1="92.1873" y1="-43.6257" x2="146.502" y2="1.8755" gradientUnits="userSpaceOnUse">
<stop offset="0.3797" stop-color="#6A1344"/>
<stop offset="1" stop-color="#4A012E"/>
</linearGradient>
<linearGradient id="paint3_linear_1_16" x1="138.474" y1="93.3823" x2="106.669" y2="30.066" gradientUnits="userSpaceOnUse">
<stop offset="0.3797" stop-color="#6A1344"/>
<stop offset="1" stop-color="#4A012E"/>
</linearGradient>
<linearGradient id="paint4_linear_1_16" x1="2.8648" y1="136.071" x2="56.9638" y2="75.0425" gradientUnits="userSpaceOnUse">
<stop offset="0.3797" stop-color="#6A1344"/>
<stop offset="1" stop-color="#4A012E"/>
</linearGradient>
<linearGradient id="paint5_linear_1_16" x1="117.65" y1="154.426" x2="85.3321" y2="75.4493" gradientUnits="userSpaceOnUse">
<stop offset="0.3797" stop-color="#6A1344"/>
<stop offset="1" stop-color="#4A012E"/>
</linearGradient>
</defs>
</svg>
